<!-- Generated by IcoMoon.io -->
<svg version="1.1" xmlns="http://www.w3.org/2000/svg" width="24" height="24" viewBox="0 0 24 24">
<title>check-circle</title>
<path d="M17.925 9.075l-7.2 7.2c-0.075 0.075-0.225 0.15-0.3 0.15-0.15 0-0.225-0.075-0.3-0.15l-4.050-4.050c-0.075-0.075-0.15-0.225-0.15-0.3s0.075-0.225 0.15-0.3l0.675-0.675c0.075-0.075 0.15-0.15 0.3-0.15s0.225 0.075 0.3 0.15l3.075 3.075 6.225-6.225c0.075-0.075 0.225-0.15 0.3-0.15s0.225 0.075 0.3 0.15l0.675 0.675c0.075 0.075 0.15 0.15 0.15 0.3-0.075 0.075-0.075 0.225-0.15 0.3z"></path>
<path d="M12 24c-6.6 0-12-5.4-12-12s5.4-12 12-12 12 5.4 12 12-5.4 12-12 12zM12 1.425c-5.85 0-10.575 4.725-10.575 10.575s4.725 10.575 10.575 10.575 10.575-4.725 10.575-10.575-4.725-10.575-10.575-10.575z"></path>
</svg>
