<!-- Generated by IcoMoon.io -->
<svg version="1.1" xmlns="http://www.w3.org/2000/svg" width="23" height="24" viewBox="0 0 23 24">
<title>chrono</title>
<path d="M11.95 15.2c0.4-0.050 0.8-0.25 1.050-0.6l3.75-5.2c0.1-0.15 0.1-0.4-0.050-0.5-0.15-0.15-0.35-0.15-0.5-0.050l-5.2 3.75c-0.35 0.25-0.55 0.65-0.6 1.050s0.1 0.8 0.4 1.1c0.25 0.25 0.65 0.4 1 0.4 0.050 0.050 0.1 0.050 0.15 0.050zM11.2 13.75c0-0.2 0.1-0.35 0.25-0.45l3.15-2.3-2.3 3.15c-0.1 0.15-0.3 0.25-0.45 0.25-0.2 0-0.35-0.050-0.5-0.2-0.1-0.1-0.15-0.3-0.15-0.45z"></path>
<path d="M20.9 7.85c0-0.050 0-0.050 0 0 0-0.050 0-0.050 0 0-0.45-0.75-0.9-1.4-1.45-1.95l0.85-0.85 0.55 0.55 1.7-1.7-1.7-1.7-1.7 1.7 0.55 0.55-0.85 0.85c-0.6-0.55-1.25-1-1.9-1.45h-0.050c-1.25-0.7-2.65-1.2-4.1-1.35v-0.5h0.6c0.55 0 1-0.45 1-1s-0.45-1-1-1h-3.6c-0.55 0-1 0.45-1 1s0.45 1 1 1h0.6v0.45c-0.45 0.050-0.85 0.1-1.3 0.2-0.2 0.050-0.35 0.25-0.3 0.5 0.050 0.2 0.25 0.35 0.5 0.3 0.35-0.1 0.75-0.15 1.1-0.2l0.45-0.050h0.35v0.8c0 0.2 0.2 0.4 0.4 0.4s0.4-0.2 0.4-0.4v-0.8c1.5 0.050 2.9 0.45 4.2 1.15l-0.4 0.7c-0.1 0.2-0.050 0.45 0.15 0.55 0.050 0.050 0.15 0.050 0.2 0.050 0.15 0 0.25-0.050 0.35-0.2l0.4-0.7c1.25 0.8 2.3 1.85 3.1 3.1l-0.7 0.4c-0.2 0.1-0.25 0.35-0.15 0.55 0.050 0.15 0.2 0.2 0.35 0.2 0.050 0 0.15 0 0.2-0.050l0.7-0.4c0.65 1.3 1.1 2.7 1.15 4.25h-0.8c-0.2 0-0.4 0.2-0.4 0.4s0.2 0.4 0.4 0.4h0.8c-0.050 1.55-0.45 2.95-1.15 4.25l-0.7-0.4c-0.2-0.1-0.45-0.050-0.55 0.15s-0.050 0.45 0.15 0.55l0.7 0.4c-0.8 1.25-1.85 2.3-3.1 3.1l-0.4-0.7c-0.1-0.2-0.35-0.25-0.55-0.15s-0.25 0.35-0.15 0.55l0.4 0.7c-1.25 0.65-2.7 1.050-4.2 1.15v-0.8c0-0.2-0.2-0.4-0.4-0.4s-0.4 0.2-0.4 0.4v0.8c-0.65 0-1.3-0.1-1.9-0.25-0.2-0.050-0.45 0.1-0.5 0.3s0.1 0.45 0.3 0.5c0.8 0.2 1.6 0.3 2.4 0.3h0.050c1.9 0 3.75-0.55 5.3-1.45h0.050c1.6-0.95 2.95-2.3 3.9-3.9v-0.1c0.9-1.6 1.45-3.4 1.45-5.4 0.1-1.95-0.45-3.8-1.35-5.35zM20.85 3.3l0.55 0.55-0.55 0.55-0.55-0.55 0.55-0.55zM11.2 2.4v-1.2h-1.4c-0.1 0-0.2-0.1-0.2-0.2s0.1-0.2 0.2-0.2h3.6c0.1 0 0.2 0.1 0.2 0.2s-0.1 0.2-0.2 0.2h-1.4v1.2h-0.8zM8 5.6h-2c-0.2 0-0.4 0.2-0.4 0.4s0.2 0.4 0.4 0.4h2c0.2 0 0.4-0.2 0.4-0.4s-0.2-0.4-0.4-0.4zM8 8.4h-4c-0.2 0-0.4 0.2-0.4 0.4s0.2 0.4 0.4 0.4h4c0.2 0 0.4-0.2 0.4-0.4s-0.2-0.4-0.4-0.4zM8 11.2h-6c-0.2 0-0.4 0.2-0.4 0.4s0.2 0.4 0.4 0.4h6c0.2 0 0.4-0.2 0.4-0.4s-0.2-0.4-0.4-0.4zM8 14h-7.6c-0.2 0-0.4 0.2-0.4 0.4s0.2 0.4 0.4 0.4h7.6c0.2 0 0.4-0.2 0.4-0.4s-0.2-0.4-0.4-0.4zM8 16.8h-5.2c-0.2 0-0.4 0.2-0.4 0.4s0.2 0.4 0.4 0.4h5.2c0.2 0 0.4-0.2 0.4-0.4s-0.2-0.4-0.4-0.4zM8 19.6h-2.8c-0.2 0-0.4 0.2-0.4 0.4s0.2 0.4 0.4 0.4h2.8c0.2 0 0.4-0.2 0.4-0.4s-0.2-0.4-0.4-0.4z"></path>
</svg>
