<!-- Generated by IcoMoon.io -->
<svg version="1.1" xmlns="http://www.w3.org/2000/svg" width="29" height="24" viewBox="0 0 29 24">
<title>cloud</title>
<path d="M24 7.647c-0.236-4.235-3.765-7.647-7.941-7.647-2.53 0-5 1.235-6.588 3.294-0.058 0-0.058 0-0.118-0.059-0.118-0.059-0.176-0.059-0.294-0.118-0.058 0-0.118-0.059-0.176-0.059-0.118-0.058-0.176-0.058-0.294-0.118h-0.118c-0.118 0-0.236-0.058-0.353-0.058h-0.588c-2.353 0-4.235 1.882-4.235 4.235v0.176c-1.941 1-3.294 3.236-3.294 5.471 0 3.353 2.706 6.058 6.058 6.058h2.412c0.236 0 0.47-0.235 0.47-0.47s-0.236-0.47-0.47-0.47h-2.412c-2.824 0-5.118-2.294-5.118-5.118 0-1.941 1.294-4 3-4.823l0.294-0.118v-0.765c0-1.823 1.471-3.294 3.294-3.294 0.118 0 0.294 0 0.412 0.059h0.118c0.118 0 0.236 0.059 0.353 0.059h0.058c0.118 0.058 0.236 0.118 0.412 0.176 0.059 0 0.059 0.058 0.118 0.058l0.353 0.176c0.882 0.588 1.529 1.588 1.529 2.764 0 0.236 0.236 0.47 0.47 0.47s0.47-0.236 0.47-0.47c0-1.295-0.588-2.471-1.529-3.236 1.353-1.765 3.588-2.882 5.764-2.882 3.647 0 6.647 2.882 7 6.529-0.47-0.058-1.177-0.058-1.941 0.058-0.235 0.058-0.412 0.294-0.412 0.529 0.058 0.236 0.236 0.412 0.47 0.412h0.058c1.059-0.176 2.118 0 2.177 0 2.177 0.412 3.823 2.412 3.823 4.706 0 2.588-2.118 4.706-4.706 4.706h-1.882c-0.236 0-0.47 0.236-0.47 0.47s0.235 0.47 0.47 0.47h1.882c3.118 0 5.647-2.53 5.647-5.647 0.059-2.588-1.765-4.941-4.177-5.53z"></path>
<path d="M18 19.412l-2.942 2.942v-9.647c0-0.236-0.235-0.47-0.47-0.47s-0.47 0.236-0.47 0.47v9.706l-2.942-2.942c-0.176-0.176-0.47-0.176-0.647 0s-0.176 0.47 0 0.647l3.765 3.765c0.058 0.058 0.118 0.058 0.176 0.118 0.058 0 0.118 0.059 0.176 0.059s0.118 0 0.176-0.059c0.058 0 0.118-0.058 0.176-0.118l3.765-3.765c0.176-0.176 0.176-0.47 0-0.647-0.235-0.235-0.588-0.235-0.765-0.058z"></path>
</svg>
