<!-- Generated by IcoMoon.io -->
<svg version="1.1" xmlns="http://www.w3.org/2000/svg" width="22" height="24" viewBox="0 0 22 24">
<title>d</title>
<path d="M21.6 5.48s-0.040 0 0 0c0-0.040-0.040-0.080-0.040-0.080s0-0.040-0.040-0.040l-0.040-0.040s-0.040 0-0.040-0.040l-0.040-0.040h-0.040l-10.4-5.2c-0.040-0.040-0.080-0.040-0.16-0.040s-0.12 0-0.16 0.040l-10.4 5.2h-0.040s-0.040 0-0.040 0.040c0 0-0.040 0-0.040 0.040l-0.040 0.040s0 0.040-0.040 0.040c0 0.040-0.040 0.040-0.040 0.080v13c0 0.040 0 0.080 0.040 0.12l0.16 0.16 10.4 5.2c0.080 0.040 0.16 0.040 0.2 0.040s0.12 0 0.16-0.040l10.4-5.2c0.12-0.080 0.24-0.2 0.24-0.36v-12.92zM1.48 17.88c-0.080-0.2-0.32-0.28-0.52-0.2l-0.16 0.080v-11.52l9.6 4.44v12.28l-9.080-4.56c0.16-0.080 0.24-0.32 0.16-0.52zM10.8 1.2c0.16 0 0.24-0.080 0.32-0.2l9.16 4.6-9.080 4.16v-0.16c0-0.24-0.16-0.4-0.4-0.4s-0.4 0.16-0.4 0.4v0.16l-9.080-4.16 9.16-4.6c0.080 0.12 0.16 0.2 0.32 0.2zM11.2 14.24l0.64 0.32c0.040 0.040 0.12 0.040 0.16 0.040 0.16 0 0.28-0.080 0.36-0.24 0.080-0.2 0-0.44-0.2-0.52l-0.72-0.32c-0.080-0.040-0.16-0.040-0.28 0v-2.8l9.6-4.44v11.56l-0.64-0.28c-0.2-0.080-0.44 0-0.52 0.2s0 0.44 0.2 0.52l0.44 0.2-9.040 4.48v-8.72z"></path>
<path d="M6.92 15.8c0.040 0 0.12 0 0.16-0.040l0.72-0.32c0.2-0.080 0.28-0.32 0.2-0.52s-0.32-0.28-0.52-0.2l-0.72 0.32c-0.2 0.080-0.28 0.32-0.2 0.52 0.080 0.12 0.24 0.24 0.36 0.24zM4.76 16.8c0.040 0 0.12 0 0.16-0.040l0.72-0.32c0.2-0.080 0.28-0.32 0.2-0.52s-0.32-0.28-0.52-0.2l-0.72 0.32c-0.2 0.080-0.28 0.32-0.2 0.52 0.080 0.16 0.2 0.24 0.36 0.24zM2.56 17.8c0.040 0 0.12 0 0.16-0.040l0.72-0.32c0.2-0.080 0.28-0.32 0.2-0.52s-0.32-0.28-0.52-0.2l-0.72 0.32c-0.2 0.080-0.28 0.32-0.2 0.52 0.080 0.16 0.24 0.24 0.36 0.24zM16.56 15.8l-0.72-0.32c-0.2-0.080-0.44 0-0.52 0.2s0 0.44 0.2 0.52l0.72 0.32c0.040 0.040 0.12 0.040 0.16 0.040 0.16 0 0.28-0.080 0.36-0.24s0-0.4-0.2-0.52zM18.72 16.8l-0.72-0.32c-0.2-0.080-0.44 0-0.52 0.2s0 0.44 0.2 0.52l0.72 0.32c0.040 0.040 0.12 0.040 0.16 0.040 0.16 0 0.28-0.080 0.36-0.24s0-0.4-0.2-0.52zM14.36 14.8l-0.72-0.32c-0.2-0.080-0.44 0-0.52 0.2s0 0.44 0.2 0.52l0.72 0.32c0.040 0.040 0.12 0.040 0.16 0.040 0.16 0 0.28-0.080 0.36-0.24 0.080-0.2 0-0.44-0.2-0.52zM9.12 14.76c0.040 0 0.12 0 0.16-0.040l0.72-0.32c0.2-0.080 0.28-0.32 0.2-0.52s-0.32-0.28-0.52-0.2l-0.72 0.32c-0.2 0.080-0.28 0.32-0.2 0.52 0.080 0.16 0.2 0.24 0.36 0.24zM10.8 3.6c0.24 0 0.4-0.16 0.4-0.4v-0.8c0-0.24-0.16-0.4-0.4-0.4s-0.4 0.16-0.4 0.4v0.8c0 0.24 0.16 0.4 0.4 0.4zM10.8 6c0.24 0 0.4-0.16 0.4-0.4v-0.8c0-0.24-0.16-0.4-0.4-0.4s-0.4 0.16-0.4 0.4v0.8c0 0.24 0.16 0.4 0.4 0.4zM10.8 8.4c0.24 0 0.4-0.16 0.4-0.4v-0.8c0-0.24-0.16-0.4-0.4-0.4s-0.4 0.16-0.4 0.4v0.8c0 0.24 0.16 0.4 0.4 0.4z"></path>
</svg>
