<!-- Generated by IcoMoon.io -->
<svg version="1.1" xmlns="http://www.w3.org/2000/svg" width="31" height="24" viewBox="0 0 31 24">
<title>google-plus</title>
<path d="M19.246 12.228q0 2.785-1.165 4.962t-3.322 3.402-4.942 1.225q-1.996 0-3.817-0.777t-3.134-2.090-2.090-3.134-0.777-3.817 0.777-3.817 2.090-3.134 3.134-2.089 3.817-0.777q3.83 0 6.576 2.572l-2.666 2.558q-1.567-1.513-3.91-1.513-1.647 0-3.047 0.83t-2.216 2.257-0.817 3.114 0.817 3.114 2.216 2.257 3.047 0.83q1.111 0 2.042-0.308t1.534-0.77 1.052-1.052 0.656-1.111 0.288-0.991h-5.572v-3.375h9.268q0.16 0.844 0.16 1.634zM30.857 10.594v2.813h-2.799v2.799h-2.813v-2.799h-2.799v-2.813h2.799v-2.799h2.813v2.799h2.799z"></path>
</svg>
