<!-- Generated by IcoMoon.io -->
<svg version="1.1" xmlns="http://www.w3.org/2000/svg" width="24" height="24" viewBox="0 0 24 24">
<title>home</title>
<path d="M23.775 13.425l-10.5-11.625c-0.3-0.375-0.75-0.525-1.275-0.525-0.45 0-0.9 0.225-1.275 0.525l-10.5 11.625c-0.225 0.225-0.225 0.6 0.075 0.825 0.15 0.075 0.225 0.15 0.375 0.15s0.3-0.075 0.45-0.225l2.55-2.775v9.525c0 0.975 0.825 1.8 1.8 1.8h13.125c0.975 0 1.8-0.825 1.8-1.8v-9.525l2.55 2.775c0.225 0.225 0.6 0.3 0.825 0.075 0.15-0.225 0.225-0.6 0-0.825zM14.4 21.525h-4.725v-5.325c0-0.3 0.3-0.6 0.6-0.6h3.6c0.3 0 0.6 0.3 0.6 0.6v5.325zM19.125 20.925c0 0.3-0.3 0.6-0.6 0.6h-3v-5.325c0-0.975-0.825-1.8-1.8-1.8h-3.6c-0.975 0-1.8 0.825-1.8 1.8v5.325h-3c-0.3 0-0.6-0.3-0.6-0.6v-10.8l6.75-7.5c0.075-0.075 0.225-0.15 0.375-0.15s0.225 0.075 0.375 0.15l6.75 7.5v10.8z"></path>
</svg>
