<!-- Generated by IcoMoon.io -->
<svg version="1.1" xmlns="http://www.w3.org/2000/svg" width="24" height="24" viewBox="0 0 24 24">
<title>info</title>
<path d="M13.5 6.225c0 0.787-0.638 1.425-1.425 1.425s-1.425-0.638-1.425-1.425c0-0.787 0.638-1.425 1.425-1.425s1.425 0.638 1.425 1.425zM13.050 9.525v-0.9h-2.85v0.9h0.9v8.175h-0.9v0.975h3.825v-0.975h-0.975z"></path>
<path d="M12 0c-6.6 0-12 5.4-12 12s5.4 12 12 12 12-5.4 12-12-5.4-12-12-12zM12 23.025c-6.075 0-11.025-4.95-11.025-11.025s4.95-11.025 11.025-11.025 11.025 4.95 11.025 11.025-4.95 11.025-11.025 11.025z"></path>
</svg>
