<!-- Generated by IcoMoon.io -->
<svg version="1.1" xmlns="http://www.w3.org/2000/svg" width="35" height="24" viewBox="0 0 35 24">
<title>key</title>
<path d="M5.067 11.353h5.067v1.294h-5.067v-1.294z"></path>
<path d="M8.948 3.052c-4.96 0-8.948 3.989-8.948 8.948s3.989 8.948 8.948 8.948c3.773 0 7.008-2.372 8.302-5.714h17.25v-6.361h-4.42l-1.941-1.941-1.941 1.941h-2.479l-3.235-3.235-3.235 3.127c-1.294-3.342-4.528-5.714-8.302-5.714zM16.064 9.197l0.323 0.863h1.294l2.695-2.696 2.588 2.587h3.666l1.402-1.402 1.402 1.402h3.666v3.881h-16.711l-0.323 0.862c-1.186 3.019-3.989 4.96-7.116 4.96-4.204 0-7.654-3.45-7.654-7.654s3.45-7.654 7.654-7.654c3.235 0 6.038 1.941 7.116 4.852z"></path>
</svg>
