<!-- Generated by IcoMoon.io -->
<svg version="1.1" xmlns="http://www.w3.org/2000/svg" width="24" height="24" viewBox="0 0 24 24">
<title>location</title>
<path d="M12.002 13.309c2.482 0 4.5-2.019 4.5-4.5s-2.018-4.5-4.5-4.5-4.5 2.018-4.5 4.5 2.018 4.5 4.5 4.5zM12.002 5.059c2.068 0 3.75 1.681 3.75 3.75s-1.682 3.75-3.75 3.75-3.75-1.682-3.75-3.75 1.681-3.75 3.75-3.75zM12 0c-4.963 0-9 3.987-9 9.001 0 5.25 4.501 10.621 7.782 14.396 0.012 0.015 0.538 0.604 1.189 0.604h0.058c0.65 0 1.178-0.589 1.189-0.604 3.283-3.775 7.783-9.145 7.783-14.396v-0.022c0-4.958-4.020-8.978-8.978-8.978h-0.025zM12.088 22.412c-0.016 0.015-0.061 0.048-0.101 0.073-0.008-0.020-0.063-0.064-0.097-0.1-2.749-3.163-7.39-8.5-7.39-13.385 0-4.136 3.365-7.501 7.5-7.501 4.137 0 7.502 3.365 7.502 7.502 0 4.884-4.641 10.222-7.414 13.411z"></path>
</svg>
