<!-- Generated by IcoMoon.io -->
<svg version="1.1" xmlns="http://www.w3.org/2000/svg" width="22" height="24" viewBox="0 0 22 24">
<title>qualite</title>
<path d="M3.214 17.473c-1.105 0-2.008 0.904-2.008 2.009s0.904 2.008 2.008 2.008 2.008-0.904 2.008-2.008-0.904-2.009-2.008-2.009zM3.214 20.687c-0.652 0-1.205-0.552-1.205-1.205s0.552-1.205 1.205-1.205c0.652 0 1.205 0.552 1.205 1.205s-0.552 1.205-1.205 1.205z"></path>
<path d="M22.092 14.26c0-1.004-0.552-1.456-1.105-1.707 0.402-0.352 0.703-0.904 0.703-1.506 0-1.105-0.904-2.009-2.009-2.009h-5.774l0.302-1.356c0.402-1.808 0.151-3.917 0.050-4.519-0.201-1.405-1.456-2.963-2.812-2.963h-0.101c-0.652 0-1.707 0.352-1.707 2.812 0 3.214-0.803 4.72-1.456 5.372-0.703 0.652-1.306 0.652-1.356 0.652h-0.402v-0.803h-6.427v15.263h6.427v-0.803h11.247c1.105 0 2.008-0.904 2.008-2.008 0-0.452-0.151-0.904-0.451-1.256 0.954-0.201 1.657-1.004 1.657-1.958 0-0.451-0.151-0.904-0.451-1.256 0.954-0.151 1.657-0.954 1.657-1.958zM0.803 9.038h4.82v13.657h-4.82v-13.657zM20.084 15.464h-4.418c-0.201 0-0.402 0.201-0.402 0.402s0.201 0.402 0.402 0.402h3.214c0.652 0 1.205 0.552 1.205 1.205s-0.552 1.205-1.205 1.205h-4.017c-0.201 0-0.402 0.201-0.402 0.402s0.201 0.402 0.402 0.402h2.812c0.652 0 1.205 0.552 1.205 1.205s-0.552 1.205-1.205 1.205h-11.247v-12.050h0.402c0.050 0 0.954 0 1.858-0.854 1.155-1.105 1.757-3.113 1.757-5.975 0-0.753 0.101-2.009 0.904-2.009h0.101c0.904 0 1.858 1.256 2.008 2.26 0.101 0.552 0.302 2.51-0.050 4.217l-0.502 2.36h6.779c0.652 0 1.205 0.552 1.205 1.205s-0.552 1.205-1.205 1.205h-4.017c-0.201 0-0.402 0.201-0.402 0.402s0.201 0.402 0.402 0.402h2.812c0.352 0 1.155 0 1.556 0.101 1.054 0.151 1.255 0.552 1.255 1.105 0 0.652-0.552 1.205-1.205 1.205z"></path>
</svg>
