<!-- Generated by IcoMoon.io -->
<svg version="1.1" xmlns="http://www.w3.org/2000/svg" width="24" height="24" viewBox="0 0 24 24">
<title>question-mark</title>
<path d="M12 0c-6.6 0-12 5.4-12 12s5.4 12 12 12 12-5.4 12-12-5.4-12-12-12zM12 23.025c-6.075 0-11.025-4.95-11.025-11.025s4.95-11.025 11.025-11.025 11.025 4.95 11.025 11.025-4.95 11.025-11.025 11.025z"></path>
<path d="M11.925 5.7c-2.475 0-3.825 1.5-3.825 3.9h1.050c-0.075-1.725 0.9-3 2.7-3 1.275 0 2.4 0.9 2.4 2.25 0 0.9-0.45 1.575-1.125 2.175-1.275 1.2-1.65 1.725-1.65 3.375h1.050c0.075-1.5 0.075-1.425 1.275-2.7 0.9-0.825 1.425-1.65 1.425-2.85 0.15-1.95-1.425-3.15-3.3-3.15zM12.975 17.25c0 0.538-0.437 0.975-0.975 0.975s-0.975-0.437-0.975-0.975c0-0.538 0.437-0.975 0.975-0.975s0.975 0.437 0.975 0.975z"></path>
</svg>
