<!-- Generated by IcoMoon.io -->
<svg version="1.1" xmlns="http://www.w3.org/2000/svg" width="24" height="24" viewBox="0 0 24 24">
<title>search</title>
<path d="M15 0.004c-4.97 0-9 4.030-9 9 0 1.52 0.38 2.95 1.046 4.206l-6.258 6.256 0.005 0.005c-0.49 0.478-0.794 1.145-0.794 1.882 0 0.001 0 0.002 0 0.003v0.002c0 1.462 1.185 2.647 2.647 2.647 0.739 0 1.406-0.304 1.886-0.794l-0.002-0.002 6.256-6.255c1.257 0.668 2.689 1.050 4.213 1.050 4.97 0 9-4.030 9-9s-4.030-9-9-9zM3.596 22.273c-0.238 0.251-0.575 0.407-0.948 0.407-0.001 0-0.002 0-0.002 0h-0.001c-0.73 0-1.323-0.593-1.323-1.323 0-0.373 0.157-0.707 0.407-0.95l-0.007-0.006 6.050-6.050c0.532 0.71 1.141 1.322 1.825 1.841l-6.002 6.080zM15 16.505c-4.142 0-7.5-3.359-7.5-7.5s3.358-7.5 7.5-7.5c4.141 0 7.5 3.358 7.5 7.5s-3.359 7.5-7.5 7.5zM15 3.754c0.207 0 0.375 0.168 0.375 0.375s-0.168 0.375-0.375 0.375c-2.486 0-4.5 2.014-4.5 4.5 0 0.207-0.168 0.375-0.375 0.375s-0.375-0.168-0.375-0.375c0-2.9 2.351-5.25 5.25-5.25z"></path>
</svg>
