<!-- Generated by IcoMoon.io -->
<svg version="1.1" xmlns="http://www.w3.org/2000/svg" width="24" height="24" viewBox="0 0 24 24">
<title>tag</title>
<path d="M23.543 10.412l-3.75-6c-0.539-0.852-1.476-1.409-2.543-1.41h-14.25c-1.657 0-3 1.343-3 3v12c0 1.657 1.343 3 3 3h14.25c1.034 0 1.995-0.533 2.543-1.411l3.75-6c0.287-0.451 0.457-1 0.457-1.589s-0.17-1.139-0.464-1.602zM22.271 12.797l-3.75 6.002c-0.268 0.425-0.735 0.704-1.267 0.704h-14.255c-0.827 0-1.5-0.674-1.5-1.5v-12c0-0.827 0.673-1.5 1.5-1.5h14.254c0.532 0 1 0.279 1.264 0.698l3.754 6.006c0.142 0.226 0.226 0.5 0.226 0.795s-0.085 0.569-0.23 0.801zM17.25 9.752l-0.058-0.001c-1.243 0-2.25 1.007-2.25 2.25s1.007 2.25 2.25 2.25l0.060-0.001c1.218-0.032 2.193-1.027 2.193-2.249s-0.974-2.216-2.188-2.249zM17.25 13.503c-0.010 0-0.022 0-0.034 0-0.829 0-1.5-0.671-1.5-1.5s0.671-1.5 1.5-1.5c0.012 0 0.023 0 0.035 0.001 0.812 0.019 1.465 0.683 1.465 1.499s-0.652 1.481-1.464 1.499z"></path>
</svg>
