<!-- Generated by IcoMoon.io -->
<svg version="1.1" xmlns="http://www.w3.org/2000/svg" width="29" height="24" viewBox="0 0 29 24">
<title>tutos</title>
<path d="M0 0v24h28.55v-24h-28.55zM4.55 22.751h-3.479v-4.55h3.479v4.55zM4.55 17.13h-3.479v-4.55h3.479v4.55zM4.55 11.509h-3.479v-4.55h3.479v4.55zM4.55 5.62h-3.479v-4.55h3.479v4.55zM22.751 7.584v15.346h-17.13v-21.859h17.13v6.513zM27.212 22.751h-3.479v-4.55h3.479v4.55zM27.212 17.13h-3.479v-4.55h3.479v4.55zM27.212 11.509h-3.479v-4.55h3.479v4.55zM27.212 5.62h-3.479v-4.55h3.479v4.55z"></path>
<path d="M11.42 7.405v9.279l8.030-4.55-8.030-4.729zM12.58 9.368l4.55 2.587-4.55 2.588v-5.175z"></path>
</svg>
