<!-- Generated by IcoMoon.io -->
<svg version="1.1" xmlns="http://www.w3.org/2000/svg" width="23" height="24" viewBox="0 0 23 24">
<title>twitter</title>
<path d="M21.697 5.464q-0.897 1.313-2.17 2.237 0.014 0.188 0.014 0.563 0 1.741-0.509 3.476t-1.547 3.328-2.471 2.819-3.455 1.955-4.326 0.73q-3.629 0-6.643-1.942 0.469 0.053 1.045 0.053 3.013 0 5.371-1.848-1.406-0.027-2.518-0.864t-1.527-2.136q0.442 0.067 0.817 0.067 0.576 0 1.139-0.147-1.5-0.308-2.485-1.493t-0.985-2.753v-0.053q0.911 0.509 1.955 0.549-0.884-0.59-1.406-1.541t-0.522-2.063q0-1.178 0.589-2.183 1.621 1.996 3.944 3.194t4.976 1.333q-0.107-0.509-0.107-0.991 0-1.795 1.266-3.060t3.060-1.266q1.875 0 3.161 1.366 1.459-0.281 2.746-1.045-0.496 1.54-1.902 2.384 1.246-0.134 2.491-0.67z"></path>
</svg>
