<!-- Generated by IcoMoon.io -->
<svg version="1.1" xmlns="http://www.w3.org/2000/svg" width="24" height="24" viewBox="0 0 24 24">
<title>users</title>
<path d="M0 17.1v1.8c0 0.225 0.15 0.675 0.675 0.675h6.45v0.9c0 0.3 0.15 0.825 0.825 0.825h15.225c0.675 0 0.825-0.525 0.825-0.825v-2.25c0-0.45-0.15-1.050-0.825-1.275-0.9-0.375-3.225-1.2-4.725-1.65-0.15 0-0.15-0.075-0.15-0.525 0-0.525 0.075-0.9 0.225-1.2 0.15-0.375 0.375-1.050 0.45-1.65 0.225-0.225 0.525-0.75 0.675-1.725 0.15-0.825 0.075-1.125 0-1.425v-0.075c-0.075-0.225 0-1.2 0.15-2.025 0.075-0.525 0-1.65-0.75-2.625-0.45-0.6-1.35-1.35-3-1.425h-0.9c-1.65 0.075-2.55 0.825-3 1.425-0.75 0.975-0.9 2.1-0.75 2.625 0.15 0.75 0.225 1.8 0.15 2.025v0.075c-0.075 0.3-0.225 0.6 0 1.425 0.225 0.975 0.45 1.425 0.675 1.725 0.075 0.6 0.3 1.2 0.45 1.65 0.15 0.375 0.375 0.75 0.375 1.2 0 0.525 0 0.525-0.15 0.525-0.3 0.075-0.675 0.225-0.975 0.3-0.825-0.3-1.95-0.675-2.7-0.9-0.075 0-0.075 0-0.075-0.45s0.075-0.75 0.15-0.975c0.15-0.3 0.3-0.825 0.375-1.275 0.15-0.225 0.45-0.6 0.6-1.35 0.15-0.675 0.075-0.9 0-1.125v-0.075c0-0.15 0-0.975 0.15-1.575 0.075-0.45 0-1.35-0.6-2.1-0.375-0.45-1.125-1.050-2.4-1.125h-0.75c-1.5-0.075-2.25 0.45-2.625 0.975-0.6 0.75-0.675 1.725-0.6 2.1 0.15 0.6 0.15 1.425 0.15 1.575v0.075c-0.075 0.225-0.15 0.45 0 1.125 0.15 0.75 0.375 1.2 0.6 1.35 0.075 0.45 0.225 0.975 0.375 1.275s0.3 0.6 0.3 0.975 0 0.45-0.15 0.45c-1.125 0.375-3 0.975-3.825 1.35-0.6 0.3-0.9 0.825-0.9 1.2zM8.025 18.3c0-0.15 0.15-0.375 0.45-0.525 0.9-0.375 3.225-1.2 4.65-1.575 0.75-0.225 0.75-0.9 0.75-1.425 0-0.6-0.225-1.125-0.45-1.575-0.15-0.3-0.3-0.9-0.375-1.35v-0.3l-0.15-0.225c-0.075-0.075-0.3-0.45-0.525-1.275-0.15-0.675-0.075-0.825 0-0.9 0-0.075 0-0.075 0.075-0.15 0.075-0.45 0-1.65-0.15-2.325-0.075-0.3 0-1.2 0.6-1.95 0.525-0.675 1.275-1.050 2.325-1.125h0.825c1.2 0 1.95 0.6 2.25 1.050 0.6 0.75 0.675 1.65 0.6 1.95-0.15 0.675-0.225 1.95-0.15 2.325 0 0.075 0.075 0.15 0.075 0.225 0.075 0.15 0.075 0.3 0 0.9-0.15 0.825-0.375 1.2-0.525 1.275l-0.15 0.225v0.3c-0.075 0.525-0.225 1.050-0.375 1.35-0.225 0.375-0.3 0.9-0.3 1.575 0 0.525 0 1.125 0.75 1.425 1.425 0.45 3.75 1.275 4.575 1.65 0.225 0.075 0.3 0.225 0.3 0.525v2.175h-15.075v-2.25zM0.9 17.1s0.075-0.225 0.3-0.3c0.75-0.3 2.625-0.975 3.675-1.275 0.75-0.225 0.75-0.9 0.75-1.275 0-0.525-0.15-0.975-0.375-1.35-0.15-0.225-0.225-0.675-0.3-1.050v-0.3l-0.15-0.225c-0.075-0.075-0.225-0.3-0.375-0.975-0.075-0.45-0.075-0.6 0-0.675 0-0.075 0-0.075 0.075-0.15 0.075-0.375-0.075-1.5-0.15-1.95-0.075-0.225 0-0.825 0.375-1.425 0.375-0.525 0.975-0.75 1.725-0.825h0.675c0.975 0.075 1.5 0.45 1.725 0.825 0.45 0.525 0.45 1.2 0.45 1.425-0.075 0.525-0.225 1.575-0.15 1.95 0 0.075 0 0.15 0.075 0.15 0 0.075 0.075 0.15 0 0.675-0.15 0.675-0.3 0.9-0.375 0.975l-0.15 0.225v0.3c-0.075 0.375-0.225 0.825-0.3 1.050-0.15 0.375-0.225 0.75-0.225 1.35 0 0.375 0 1.050 0.75 1.275 0.45 0.15 1.050 0.3 1.575 0.525-0.9 0.3-1.8 0.675-2.325 0.825-0.675 0.3-1.050 0.9-1.050 1.35v0.375h-6.225v-1.5z"></path>
</svg>
