<!-- Generated by IcoMoon.io -->
<svg version="1.1" xmlns="http://www.w3.org/2000/svg" width="24" height="24" viewBox="0 0 24 24">
<title>youtube-play</title>
<path d="M17.143 12q0-0.496-0.402-0.723l-6.857-4.285q-0.415-0.268-0.871-0.027-0.442 0.241-0.442 0.75v8.572q0 0.509 0.442 0.75 0.214 0.107 0.415 0.107 0.268 0 0.455-0.134l6.857-4.285q0.402-0.228 0.402-0.723zM24 12q0 1.285-0.014 2.009t-0.114 1.829-0.302 1.975q-0.215 0.978-0.924 1.647t-1.66 0.777q-2.973 0.335-8.986 0.335t-8.986-0.335q-0.951-0.107-1.667-0.777t-0.931-1.647q-0.188-0.871-0.288-1.975t-0.114-1.829-0.013-2.009 0.013-2.009 0.114-1.829 0.301-1.976q0.215-0.978 0.924-1.647t1.66-0.777q2.973-0.334 8.986-0.334t8.986 0.334q0.951 0.107 1.667 0.777t0.931 1.647q0.188 0.871 0.288 1.976t0.114 1.829 0.014 2.009z"></path>
</svg>
