<svg xmlns="http://www.w3.org/2000/svg" viewBox="0 0 48 49"><path d="M45.6 46.4h-40c-2.2 0-3.9-1.8-3.9-4s1.8-4 4-4 4 1.8 4 4h1.6V8h34.4v38.4zm-44-40c0-1.9 1.4-3.6 3.2-3.9 0 .4.4.7.8.7s.7-.3.8-.7c1.8.4 3.2 2 3.2 3.9v32.1c-1-1-2.4-1.7-4-1.7h-.8c-.1 0-.2 0-.3.1-.1 0-.2.1-.3.1-.1 0-.1 0-.2.1-.1 0-.3.1-.4.1h-.1c-.2.1-.3.1-.5.2-.5.3-.9.6-1.3 1v-32zm9.6 0C11.2 3.3 8.7.8 5.6.8 2.5.8 0 3.3 0 6.4v36C0 45.5 2.5 48 5.6 48h41.6V6.4h-36z"/><path d="M36.8 17.6c.1.1.3.1.5.1.3 0 .5-.1.7-.3.3-.4.2-.9-.2-1.1l-1.3-.9c-.4-.3-.9-.2-1.1.2-.3.4-.2.9.2 1.1l1.2.9zm3.9 2.8c.1.1.3.1.5.1s.5-.1.7-.3c.3-.4.2-.9-.2-1.1l-1.3-.9c-.4-.3-.9-.2-1.1.2-.3.4-.2.9.2 1.1l1.2.9zM29.6 33.6c0 .4.4.8.8.8H32c.4 0 .8-.4.8-.8s-.4-.8-.8-.8h-1.6c-.4 0-.8.4-.8.8zm11.2-10.9v1.6c0 .4.4.8.8.8s.8-.4.8-.8v-1.6c0-.4-.4-.8-.8-.8s-.8.4-.8.8zm-7.9-7.9c.1.1.3.1.5.1.3 0 .5-.1.7-.3.3-.4.2-.9-.2-1.1l-1.3-.9c-.4-.3-.9-.2-1.1.2-.3.4-.2.9.2 1.1l1.2.9zm1.5 18.8c0 .4.4.8.8.8h1.6c.4 0 .8-.4.8-.8s-.4-.8-.8-.8h-1.6c-.4 0-.8.4-.8.8zm-11.2 0c0-.4-.4-.8-.8-.8h-1.6c-.4 0-.8.4-.8.8s.4.8.8.8h1.6c.4 0 .8-.4.8-.8zm18.4-3.7c.4 0 .8-.4.8-.8v-1.6c0-.4-.4-.8-.8-.8s-.8.4-.8.8v1.6c0 .4.4.8.8.8zM29 12.1c.1.1.3.1.5.1.3 0 .5-.1.7-.3.3-.4.2-.9-.2-1.1l-1.3-.9c-.4-.3-.9-.2-1.1.2-.3.4-.2.9.2 1.1l1.2.9zm11.8 20.7H40c-.4 0-.8.4-.8.8s.4.8.8.8h2.4v-2.1c0-.4-.4-.8-.8-.8s-.8.4-.8.8v.5zM16 34.4h1.6c.4 0 .8-.4.8-.8s-.4-.8-.8-.8H16c-.4 0-.8.4-.8.8s.4.8.8.8zm-1.6-11.2c.4 0 .8-.4.8-.8v-1.6c0-.4-.4-.8-.8-.8s-.8.4-.8.8v1.6c0 .4.4.8.8.8zm2-3.8c.2 0 .3-.1.5-.1l1.3-.9c.4-.3.4-.8.2-1.1-.3-.4-.8-.4-1.1-.2l-1.4.9c-.4.3-.4.8-.2 1.1.2.2.4.3.7.3zm3.9-2.8c.2 0 .3 0 .5-.1l1.3-.9c.4-.3.4-.8.2-1.1-.3-.4-.8-.4-1.1-.2l-1.3.9c-.4.3-.4.8-.2 1.1.1.2.3.3.6.3zM14.4 28c.4 0 .8-.4.8-.8v-1.6c0-.4-.4-.8-.8-.8s-.8.4-.8.8v1.6c0 .4.4.8.8.8zm9.8-14.1c.2 0 .3 0 .5-.1l1.3-.9c.4-.3.4-.8.2-1.1-.3-.4-.8-.4-1.1-.2l-1.3.9c-.4.3-.4.8-.2 1.1.1.2.4.3.6.3zm.6 19.7c0 .4.4.8.8.8h1.6c.4 0 .8-.4.8-.8s-.4-.8-.8-.8h-1.6c-.4 0-.8.4-.8.8zm-10.4-.8c.4 0 .8-.4.8-.8v-1.6c0-.4-.4-.8-.8-.8s-.8.4-.8.8V32c0 .4.4.8.8.8zm20 6.4h7.2v3.2h-7.2v-3.2zM32.8 44h10.4v-6.4H32.8V44zM17.6 24.8v1.6c0 .4.4.8.8.8s.8-.4.8-.8v-1.6c0-.4-.4-.8-.8-.8s-.8.4-.8.8zm7.2-2.4c-.4 0-.8.4-.8.8v1.6c0 .4.4.8.8.8s.8-.4.8-.8v-1.6c0-.4-.4-.8-.8-.8zM20 24h1.6c.4 0 .8-.4.8-.8s-.4-.8-.8-.8H20c-.4 0-.8.4-.8.8s.4.8.8.8zm.8 5.6c0-.4-.4-.8-.8-.8h-1.6c-.4 0-.8.4-.8.8s.4.8.8.8H20c.4 0 .8-.4.8-.8zm2.4.8h1.6c.4 0 .8-.4.8-.8V28c0-.4-.4-.8-.8-.8s-.8.4-.8.8v.8h-.8c-.4 0-.8.4-.8.8s.4.8.8.8zm8.8-7.2c0 .4.4.8.8.8h1.6c.4 0 .8-.4.8-.8s-.4-.8-.8-.8h-1.6c-.4 0-.8.4-.8.8zm4.8 0v1.6c0 .4.4.8.8.8s.8-.4.8-.8v-1.6c0-.4-.4-.8-.8-.8s-.8.4-.8.8zm.8 7.2c.4 0 .8-.4.8-.8V28c0-.4-.4-.8-.8-.8s-.8.4-.8.8v.8H36c-.4 0-.8.4-.8.8s.4.8.8.8h1.6zm-6.4-3.2c.4 0 .8-.4.8-.8v-1.6c0-.4-.4-.8-.8-.8s-.8.4-.8.8v1.6c0 .4.4.8.8.8zm0 3.2h1.6c.4 0 .8-.4.8-.8s-.4-.8-.8-.8h-1.6c-.4 0-.8.4-.8.8s.4.8.8.8zm-.8 7.2h-4c-.4 0-.8.4-.8.8s.4.8.8.8h4c.4 0 .8-.4.8-.8s-.4-.8-.8-.8zm0 2.4h-5.6c-.4 0-.8.4-.8.8s.4.8.8.8h5.6c.4 0 .8-.4.8-.8s-.4-.8-.8-.8zm0 2.4h-8c-.4 0-.8.4-.8.8s.4.8.8.8h8c.4 0 .8-.4.8-.8s-.4-.8-.8-.8z"/><circle cx="3.2" cy="4.8" r=".8"/><circle cx="8" cy="4.8" r=".8"/><path d="M6.4 7.2c0 .4-.4.8-.8.8s-.8-.4-.8-.8.4-.8.8-.8.8.4.8.8z"/><circle cx="3.2" cy="9.6" r=".8"/><circle cx="8" cy="9.6" r=".8"/><path d="M4 14.4c0 .4-.4.8-.8.8s-.8-.4-.8-.8.4-.8.8-.8.8.4.8.8zm4.8 0c0 .4-.4.8-.8.8s-.8-.4-.8-.8.4-.8.8-.8.8.4.8.8zM6.4 12c0 .4-.4.8-.8.8s-.8-.4-.8-.8.4-.8.8-.8.8.4.8.8zm0 4.8c0 .4-.4.8-.8.8s-.8-.4-.8-.8.4-.8.8-.8.8.4.8.8zM4 19.2c0 .4-.4.8-.8.8s-.8-.4-.8-.8.4-.8.8-.8.8.4.8.8zm4.8 0c0 .4-.4.8-.8.8s-.8-.4-.8-.8.4-.8.8-.8.8.4.8.8z"/><circle cx="3.2" cy="24" r=".8"/><circle cx="8" cy="24" r=".8"/><path d="M6.4 21.6c0 .4-.4.8-.8.8s-.8-.4-.8-.8.4-.8.8-.8.8.4.8.8zm0 4.8c0 .4-.4.8-.8.8s-.8-.4-.8-.8.4-.8.8-.8.8.4.8.8z"/><circle cx="3.2" cy="28.8" r=".8"/><circle cx="8" cy="28.8" r=".8"/><circle cx="3.2" cy="33.6" r=".8"/><circle cx="8" cy="33.6" r=".8"/><path d="M6.4 31.2c0 .4-.4.8-.8.8s-.8-.4-.8-.8.4-.8.8-.8.8.4.8.8zm0 4.8c0 .4-.4.8-.8.8s-.8-.4-.8-.8.4-.8.8-.8.8.4.8.8z"/></svg>