<svg xmlns="http://www.w3.org/2000/svg" viewBox="0 0 41 48"><path d="M34.4 28.8h-28c-.4 0-.8.4-.8.8s.4.8.8.8h28c.4 0 .8-.4.8-.8s-.4-.8-.8-.8zm-10.4-4h10.4c.4 0 .8-.4.8-.8s-.4-.8-.8-.8H24c-.4 0-.8.4-.8.8s.4.8.8.8zm0-5.6h10.4c.4 0 .8-.4.8-.8s-.4-.8-.8-.8H24c-.4 0-.8.4-.8.8s.4.8.8.8zm0-5.6h10.4c.4 0 .8-.4.8-.8s-.4-.8-.8-.8H24c-.4 0-.8.4-.8.8s.4.8.8.8zm10.4 24.8h-28c-.4 0-.8.4-.8.8s.4.8.8.8h28c.4 0 .8-.4.8-.8s-.4-.8-.8-.8zm-28-3.2h11.2c.4 0 .8-.4.8-.8s-.4-.8-.8-.8H6.4c-.4 0-.8.4-.8.8s.4.8.8.8zm28-1.6H24c-.4 0-.8.4-.8.8s.4.8.8.8h10.4c.4 0 .8-.4.8-.8s-.4-.8-.8-.8zm-13 1.4c.1-.2.2-.4.2-.6 0-.2-.1-.4-.2-.6-.3-.3-.8-.3-1.1 0-.2.2-.3.4-.3.6 0 .2.1.4.2.6.2.1.4.2.6.2.2 0 .4-.1.6-.2z"/><path d="M39.2 46.4H1.6V4.8h4v18.4c0 .3.2.6.4.7.3.1.6.1.8-.1l5.9-4.4 5.9 4.4c.1.1.1.1.2.1h.2c.1 0 .2 0 .3-.1.3-.1.4-.4.4-.7V4.8h19.2v41.6zM7.2 4V1.6h11.2v20l-5.1-3.8c-.3-.2-.7-.2-1 0l-5.1 3.8V4zM40 3.2H20V.8c0-.4-.4-.8-.8-.8H6.4c-.4 0-.8.4-.8.8v2.4H.8c-.4 0-.8.4-.8.8v43.2c0 .4.4.8.8.8H40c.4 0 .8-.4.8-.8V4c0-.4-.4-.8-.8-.8z"/></svg>