<svg xmlns="http://www.w3.org/2000/svg" viewBox="0 0 463 271"><path d="M455.5 256H447V146.8l4.3 2.9c1.3.9 2.7 1.3 4.2 1.3 2.4 0 4.8-1.2 6.2-3.3 2.3-3.4 1.4-8.1-2.1-10.4l-96-64c-2.5-1.7-5.8-1.7-8.3 0l-96 64c-3.4 2.3-4.4 7-2.1 10.4 2.3 3.4 7 4.4 10.4 2.1l4.3-2.9V216h-17v-8.5c0-4.1-3.4-7.5-7.5-7.5s-7.5 3.4-7.5 7.5v8.5h-17v-8.5c0-4.1-3.4-7.5-7.5-7.5s-7.5 3.4-7.5 7.5v8.5h-17v-17.9c13.8-3.4 24-15.8 24-30.6 0-7.3-2.8-23.9-7.4-39.1-6.5-22.1-14.2-32.4-24-32.4s-17.5 10.3-24.1 32.4c-4.6 15.2-7.4 31.8-7.4 39.1 0 14.8 10.2 27.2 24 30.6V216h-17v-8.5c0-4.1-3.4-7.5-7.5-7.5s-7.5 3.4-7.5 7.5v8.5h-17v-8.5c0-4.1-3.4-7.5-7.5-7.5s-7.5 3.4-7.5 7.5v8.5H95v-25.5c27.1-3.7 48-26.9 48-55 0-14.1-5.4-46.4-14.4-76.1C116.5 19.4 103.1 0 87.5 0s-29 19.4-41.1 59.4c-9 29.7-14.4 62-14.4 76.1 0 28.1 20.9 51.3 48 55V216H63v-8.5c0-4.1-3.4-7.5-7.5-7.5s-7.5 3.4-7.5 7.5v8.5H31v-8.5c0-4.1-3.4-7.5-7.5-7.5s-7.5 3.4-7.5 7.5v8.5H7.5c-4.1 0-7.5 3.4-7.5 7.5s3.4 7.5 7.5 7.5H16v25H7.5c-4.1 0-7.5 3.4-7.5 7.5s3.4 7.5 7.5 7.5h448c4.1 0 7.5-3.4 7.5-7.5s-3.4-7.5-7.5-7.5M167 167.5c0-5.4 2.3-19.2 5.9-32 4.5-15.8 8.7-22.2 10.6-24.1 1.9 1.9 6.1 8.3 10.6 24.1 3.6 12.8 5.9 26.6 5.9 32 0 6.4-3.7 11.9-9 14.7v-6.7c0-4.1-3.4-7.5-7.5-7.5s-7.5 3.4-7.5 7.5v6.7c-5.3-2.8-9-8.3-9-14.7m-120-32c0-12.7 5.3-43.7 13.7-71.8 4.6-15.1 9.6-27.6 14.6-36.2C80.6 18.3 85.1 15 87.5 15s6.9 3.3 12.2 12.5c5 8.6 10 21.1 14.6 36.2 8.5 28 13.7 59.1 13.7 71.8 0 19.8-14.2 36.3-33 39.8v-36.7l13.8-13.8c2.9-2.9 2.9-7.7 0-10.6-2.9-2.9-7.7-2.9-10.6 0l-3.2 3.2v-13.9c0-4.1-3.4-7.5-7.5-7.5s-7.5 3.4-7.5 7.5v37.9l-3.2-3.2c-2.9-2.9-7.7-2.9-10.6 0-2.9 2.9-2.9 7.7 0 10.6L80 162.6v12.7c-18.8-3.5-33-20-33-39.8M272 256h-17v-25h17v25zm-32 0h-17v-25h17v25zm-32 0h-17v-25h17v25zm-32 0h-17v-25h17v25zm-32 0h-17v-25h17v25zm-32 0H95v-25h17v25zm-32 0H63v-25h17v25zm-49-25h17v25H31v-25zm256 25V136.8l72.5-48.3 72.5 48.3V256H287z"/><path d="M343.5 160h-32c-4.1 0-7.5 3.4-7.5 7.5v64c0 4.1 3.4 7.5 7.5 7.5h32c4.1 0 7.5-3.4 7.5-7.5v-64c0-4.1-3.4-7.5-7.5-7.5m-7.5 24h-17v-9h17v9zm-17 15h17v25h-17v-25zm88.5-39h-32c-4.1 0-7.5 3.4-7.5 7.5v64c0 4.1 3.4 7.5 7.5 7.5h32c4.1 0 7.5-3.4 7.5-7.5v-64c0-4.1-3.4-7.5-7.5-7.5m-7.5 24h-17v-9h17v9zm-17 15h17v25h-17v-25z"/></svg>