<svg xmlns="http://www.w3.org/2000/svg" viewBox="0 0 76.8 74.9"><path fill="#231F20" d="M23 17.5c5 1.1 10.1 1.7 15.2 1.7s10.2-.6 15.2-1.7c.5-.1.9-.6.8-1.1C53.5 9.6 48.7 4 42.4 2.2V1c0-.6-.4-1-1-1s-1 .4-1 1v.8c-.7-.1-1.4-.2-2.2-.2-.7 0-1.5.1-2.2.2V1c0-.6-.4-1-1-1s-1 .4-1 1v1.2C27.9 4 23 9.6 22.3 16.5c-.1.5.2.9.7 1M34.1 4.3v3.1c0 .6.4 1 1 1s1-.4 1-1V3.8c.7-.1 1.4-.2 2.2-.2.7 0 1.5.1 2.2.2v3.6c0 .6.4 1 1 1s1-.4 1-1V4.3c4.9 1.6 8.8 6.1 9.7 11.5-9.1 1.9-18.6 1.9-27.8 0 .9-5.5 4.7-9.9 9.7-11.5m10.4 10.4c-2 .5-4.1.7-6.2.7-2.1 0-4.2-.2-6.2-.7-.5-.1-.9-.7-.8-1.2.1-.5.7-.9 1.2-.8 3.8.8 7.7.8 11.5 0 .5-.1 1.1.2 1.2.8.1.5-.2 1.1-.7 1.2m-22.9 7.4c0-.6.1-2.6 1.5-3.2 1.4-.5 2.8.9 3.1 1.2.4.4.4 1 0 1.4-.4.4-1 .4-1.4 0-.3-.3-.7-.6-.9-.7-.1.1-.2.5-.2 1.3-.1 3.5 2.6 4.4 2.6 4.4.3.1.6.4.6.7v.4c.8 9.1 8 12.1 11.3 12.1 3.4 0 10.6-2.9 11.3-12.1v-.4c.1-.3.3-.6.6-.7.1 0 2.7-1 2.6-4.4 0-.8-.2-1.2-.2-1.3-.2.1-.6.4-.9.7-.4.4-1 .4-1.4 0-.4-.4-.4-1 0-1.4.3-.3 1.7-1.7 3.1-1.2 1.4.5 1.5 2.5 1.5 3.2.1 3.5-1.9 5.4-3.4 6.1-1 9.3-8.3 13.4-13.3 13.4s-12.3-4.2-13.3-13.4c-1.3-.8-3.3-2.7-3.2-6.1m18.2-.2c-.3 0-.6.1-.8.3-.1.1-.1.1-.1.2h-1.3c0-.1-.1-.1-.1-.2-.2-.2-.5-.3-.8-.3h-7.9c-.3 0-.5.1-.7.3-.2.2-.3.5-.3.7 0 .9.2 4.1 1.6 5.2.9.7 2.2 1.2 3.6 1.2 1.3 0 2.3-.4 3-1.1.7-.8 1.2-2.4 1.5-3.7h1.6c.3 1.2.8 2.9 1.5 3.7.7.7 1.7 1.1 3 1.1s2.7-.4 3.6-1.2c1.4-1.1 1.5-4.3 1.6-5.2 0-.3-.1-.5-.3-.7-.2-.2-.4-.3-.7-.3h-8zm-5.3 4.8c-.3.3-.8.5-1.5.5-.9 0-1.8-.3-2.3-.7-.3-.3-.6-1.5-.8-2.7h5.6c-.2 1.2-.6 2.5-1 2.9m11.4-.2c-.5.4-1.5.7-2.3.7-.7 0-1.2-.2-1.5-.5-.4-.4-.8-1.7-1-2.9h5.6c-.2 1.3-.5 2.4-.8 2.7M70.8 42c-10 3.3-20.3 5-30.8 5.2v24.1c0 .6-.4 1-1 1s-1-.4-1-1V50.8c-7.6 0-15.2-.9-22.6-2.5-.1 0-.2 0-.2-.1-3.1-.7-6.3-1.6-9.4-2.6l.6 7.7c0 .6-.4 1-.9 1.1h-.1c-.5 0-1-.4-1-.9l-.7-9.2c0-.3.1-.7.4-.9.3-.2.6-.3.9-.2 3.3 1.1 6.6 2.1 10 2.8 2.1-3.4 5.6-6 10.3-7.7l-.1-1c0-.6.4-1 .9-1.1.5 0 1 .4 1.1.9l.3 4.3 3-1.1c.5-.2 1.1.1 1.3.6.2.5-.1 1.1-.6 1.3L27 43.7c-.1 0-.2.1-.3.1-.2 0-.4-.1-.6-.2-.3-.2-.4-.5-.4-.8l-.2-2.5c-3.8 1.4-6.5 3.4-8.4 6 6.9 1.4 13.8 2.2 20.9 2.2v-2.6c0-.5.4-1 1-1 5.9 0 11.8-.6 17.5-1.6-1.5-1.2-3.3-2.2-5.3-3l-.2 2.5c0 .3-.2.6-.4.8-.2.1-.4.2-.6.2-.1 0-.2 0-.3-.1l-4.2-1.5c-.5-.2-.8-.8-.6-1.3s.8-.8 1.3-.6l3 1.1.3-4.3c0-.6.5-1 1.1-.9.6 0 1 .5.9 1.1l-.1 1c3.1 1.1 5.7 2.7 7.7 4.6 4.2-.9 8.4-2 12.5-3.4.3-.1.7-.1.9.1.3.2.4.5.4.8L72.2 54c0 .6-.5 1-1 1-.6 0-1-.5-1-1l.6-12zm4.8 15.5c-.9-.9-2.3-1.3-4.3-1.3s-3.4.4-4.3 1.3c-1.2 1.2-1.2 2.9-1.2 4.4v6.9c0 3 2.4 5.5 5.5 5.5 3 0 5.4-2.4 5.4-5.5v-6.9c.1-1.5.1-3.2-1.1-4.4m-.8 4.4v7c0 1.9-1.5 3.5-3.5 3.5-1.4 0-2.6-.8-3.1-2h2c.6 0 1-.4 1-1s-.4-1-1-1h-2.3v-1.7h2.3c.6 0 1-.4 1-1s-.4-1-1-1h-2.3v-1.8h2.3c.6 0 1-.4 1-1s-.4-1-1-1h-2.3c0-.7.2-1.4.6-1.8.5-.5 1.5-.7 2.9-.7s2.4.2 2.9.7c.5.4.5 1.6.5 2.8m-69-6.4c-2.1 0-3.6.5-4.6 1.4C0 58.2 0 60 0 61.6v7.5c0 3.2 2.6 5.8 5.8 5.8s5.8-2.6 5.8-5.8v-7.5c0-1.6 0-3.4-1.2-4.7-1-.9-2.5-1.4-4.6-1.4m0 17.4c-2.1 0-3.8-1.7-3.8-3.8v-7.5c0-1.3 0-2.6.7-3.3.5-.5 1.6-.8 3.1-.8s2.6.3 3.1.8.6 1.2.7 2.1H7c-.6 0-1 .4-1 1s.4 1 1 1h2.6v2.1H7c-.6 0-1 .4-1 1s.4 1 1 1h2.6v2H7c-.6 0-1 .4-1 1s.4 1 1 1h2.3c-.5 1.4-1.9 2.4-3.5 2.4"/></svg>