<svg xmlns="http://www.w3.org/2000/svg" viewBox="0 0 48 39.2"><path d="M44.2 8h-6.8l-3.2-8H13.9l-3.2 8H9.6V4H4.8v4h-1C1.7 8 0 9.7 0 11.8v23.5c0 2.1 1.7 3.9 3.9 3.9h40.3c2.1 0 3.9-1.7 3.9-3.9V11.8C48 9.7 46.3 8 44.2 8M6.4 5.6H8V8H6.4V5.6zm40 29.7c0 1.3-1 2.3-2.3 2.3H3.9c-1.2 0-2.3-1-2.3-2.3V11.8c0-1.2 1-2.2 2.2-2.2h7.9l3.2-8H33l3.2 8h7.9c1.2 0 2.2 1 2.2 2.2v23.5z"/><path d="M24 7.2c-7.9 0-14.4 6.5-14.4 14.4S16.1 36 24 36s14.4-6.5 14.4-14.4S31.9 7.2 24 7.2m0 27.2c-7.1 0-12.8-5.7-12.8-12.8 0-7.1 5.7-12.8 12.8-12.8s12.8 5.7 12.8 12.8c0 7.1-5.7 12.8-12.8 12.8"/><path d="M24 12c-5.3 0-9.6 4.3-9.6 9.6s4.3 9.6 9.6 9.6 9.6-4.3 9.6-9.6S29.3 12 24 12m0 17.6c-4.4 0-8-3.6-8-8s3.6-8 8-8 8 3.6 8 8-3.6 8-8 8m17.6-18.4c-1.8 0-3.2 1.4-3.2 3.2 0 1.8 1.4 3.2 3.2 3.2 1.8 0 3.2-1.4 3.2-3.2 0-1.8-1.4-3.2-3.2-3.2m0 4.8c-.9 0-1.6-.7-1.6-1.6 0-.9.7-1.6 1.6-1.6.9 0 1.6.7 1.6 1.6 0 .9-.7 1.6-1.6 1.6"/></svg>