<?xml version="1.0" standalone="no"?>
<!DOCTYPE svg PUBLIC "-//W3C//DTD SVG 20010904//EN"
 "http://www.w3.org/TR/2001/REC-SVG-20010904/DTD/svg10.dtd">
<svg version="1.0" xmlns="http://www.w3.org/2000/svg"
 width="450.000000pt" height="450.000000pt" viewBox="0 0 450.000000 450.000000"
 preserveAspectRatio="xMidYMid meet">
<metadata>
Created by potrace 1.11, written by Peter Selinger 2001-2013
</metadata>
<g transform="translate(0.000000,450.000000) scale(0.100000,-0.100000)"
fill="#000000" stroke="none">
<path d="M2305 4168 c-43 -73 -113 -191 -155 -263 -42 -71 -88 -150 -102 -175
-24 -43 -168 -288 -188 -320 -5 -8 -30 -51 -56 -95 -25 -44 -54 -93 -64 -110
-10 -16 -42 -73 -73 -125 l-55 -95 185 -3 186 -2 144 -145 145 -145 -6 -58
c-4 -47 -14 -179 -20 -279 -2 -35 -11 -36 -58 -10 -23 13 -83 45 -133 72 -49
26 -94 52 -100 56 -11 11 -10 11 123 10 58 0 102 4 102 9 0 6 -4 10 -9 10 -5
0 -16 6 -23 13 -55 51 -561 418 -568 411 -4 -5 -17 -25 -28 -44 -17 -32 -157
-270 -211 -361 l-22 -37 198 0 c109 -1 214 -1 234 -1 36 -1 72 -28 364 -269
11 -10 41 -34 67 -56 l48 -38 -6 -62 c-3 -33 -7 -92 -9 -131 -12 -217 -19
-303 -28 -311 -2 -2 -59 26 -128 61 -68 36 -162 84 -208 107 l-84 43 172 5
172 5 -118 83 c-178 126 -526 370 -546 384 -10 7 -51 36 -90 65 -40 28 -74 49
-76 47 -2 -2 -79 -133 -171 -291 l-167 -288 305 -3 305 -2 126 -101 c69 -55
133 -105 141 -112 8 -7 35 -28 60 -47 25 -19 47 -37 50 -40 3 -3 52 -43 110
-90 58 -46 111 -90 119 -98 13 -13 11 -128 -5 -295 -3 -28 -7 -80 -8 -115 -2
-34 -5 -65 -8 -68 -3 -3 -46 10 -94 29 -49 19 -160 61 -247 93 l-158 59 197 3
196 2 -117 75 c-64 41 -120 75 -125 75 -4 0 -13 6 -19 14 -7 8 -26 22 -44 31
-18 9 -44 24 -59 33 -15 9 -191 119 -390 243 -200 125 -368 229 -373 232 -6 3
-35 -38 -65 -90 -86 -150 -171 -297 -281 -484 -38 -64 -69 -120 -69 -123 0 -3
180 -6 400 -6 441 0 394 5 495 -57 11 -7 47 -28 80 -48 66 -39 365 -221 405
-246 14 -9 76 -47 138 -85 l112 -69 -4 -45 c-3 -25 -8 -92 -11 -150 -3 -58 -8
-117 -11 -133 l-6 -27 104 -1 c107 -1 414 0 459 0 22 1 26 5 23 27 -3 28 -11
143 -20 269 -3 44 -7 103 -9 130 -3 28 -7 95 -10 150 -3 55 -8 110 -10 121 -5
23 -7 20 245 244 139 123 251 223 264 235 6 6 41 36 77 67 l66 58 375 2 375 3
-134 230 c-75 127 -147 250 -161 275 -23 42 -104 180 -142 243 -15 26 -17 26
-36 10 -10 -10 -53 -47 -94 -83 -41 -36 -88 -77 -105 -91 -16 -15 -73 -64
-125 -109 -52 -45 -111 -97 -130 -114 -19 -17 -53 -46 -75 -65 -22 -19 -69
-60 -105 -91 -36 -31 -105 -91 -153 -133 l-88 -77 178 -2 178 -3 -214 -128
c-118 -70 -215 -126 -216 -125 -3 3 -13 116 -20 218 -2 30 -6 100 -10 155 -3
55 -8 124 -10 154 l-4 55 59 60 c32 34 80 84 105 111 26 28 110 116 187 197
l139 146 240 0 c133 0 242 2 244 4 2 2 -12 28 -31 58 -18 30 -37 61 -40 69 -4
8 -32 55 -62 105 -30 50 -60 100 -66 111 -10 17 -146 245 -151 253 -2 2 -166
-162 -494 -495 -67 -69 -95 -103 -84 -104 10 0 87 0 171 0 l153 0 -53 -43
c-29 -23 -107 -83 -174 -133 -66 -50 -128 -98 -137 -107 -14 -15 -16 -15 -21
1 -3 10 -8 63 -11 118 -5 99 -11 172 -21 292 -5 68 -10 57 121 260 22 34 69
107 104 163 l63 100 179 0 179 0 -46 78 c-26 42 -62 104 -81 137 -19 33 -42
74 -52 90 -68 114 -425 724 -450 768 -9 16 -21 36 -26 45 -6 9 -30 51 -54 92
-24 41 -50 83 -56 93 -11 16 -22 2 -90 -115z m-20 -1260 c-3 -39 -6 -72 -7
-73 -2 -2 -50 31 -107 71 l-105 74 112 0 112 0 -5 -72z m395 68 c0 -2 -32 -35
-72 -72 -39 -38 -82 -80 -95 -93 l-23 -24 -1 39 c0 21 -2 65 -5 97 l-6 57 101
0 c56 0 101 -2 101 -4z"/>
</g>
</svg>
