<?xml version="1.0" encoding="utf-8"?>
<!-- Generator: Adobe Illustrator 18.1.1, SVG Export Plug-In . SVG Version: 6.00 Build 0)  -->
<svg version="1.1" id="Calque_1" xmlns="http://www.w3.org/2000/svg" xmlns:xlink="http://www.w3.org/1999/xlink" x="0px" y="0px"
	 viewBox="0 0 41 48" enable-background="new 0 0 41 48" xml:space="preserve">
<path d="M34.4,28.8h-28c-0.4,0-0.8,0.4-0.8,0.8c0,0.4,0.4,0.8,0.8,0.8h28c0.4,0,0.8-0.4,0.8-0.8C35.2,29.2,34.8,28.8,34.4,28.8z"/>
<path d="M24,24.8h10.4c0.4,0,0.8-0.4,0.8-0.8s-0.4-0.8-0.8-0.8H24c-0.4,0-0.8,0.4-0.8,0.8S23.6,24.8,24,24.8z"/>
<path d="M24,19.2h10.4c0.4,0,0.8-0.4,0.8-0.8c0-0.4-0.4-0.8-0.8-0.8H24c-0.4,0-0.8,0.4-0.8,0.8C23.2,18.8,23.6,19.2,24,19.2z"/>
<path d="M24,13.6h10.4c0.4,0,0.8-0.4,0.8-0.8c0-0.4-0.4-0.8-0.8-0.8H24c-0.4,0-0.8,0.4-0.8,0.8C23.2,13.2,23.6,13.6,24,13.6z"/>
<path d="M34.4,38.4h-28c-0.4,0-0.8,0.4-0.8,0.8C5.6,39.6,6,40,6.4,40h28c0.4,0,0.8-0.4,0.8-0.8C35.2,38.8,34.8,38.4,34.4,38.4z"/>
<path d="M6.4,35.2h11.2c0.4,0,0.8-0.4,0.8-0.8c0-0.4-0.4-0.8-0.8-0.8H6.4c-0.4,0-0.8,0.4-0.8,0.8C5.6,34.8,6,35.2,6.4,35.2z"/>
<path d="M34.4,33.6H24c-0.4,0-0.8,0.4-0.8,0.8c0,0.4,0.4,0.8,0.8,0.8h10.4c0.4,0,0.8-0.4,0.8-0.8C35.2,34,34.8,33.6,34.4,33.6z"/>
<g>
	<path d="M21.4,35c0.1-0.2,0.2-0.4,0.2-0.6c0-0.2-0.1-0.4-0.2-0.6c-0.3-0.3-0.8-0.3-1.1,0C20.1,34,20,34.2,20,34.4
		c0,0.2,0.1,0.4,0.2,0.6c0.2,0.1,0.4,0.2,0.6,0.2C21,35.2,21.2,35.1,21.4,35z"/>
	<path d="M39.2,46.4H1.6V4.8h4v18.4c0,0.3,0.2,0.6,0.4,0.7c0.3,0.1,0.6,0.1,0.8-0.1l5.9-4.4l5.9,4.4c0.1,0.1,0.1,0.1,0.2,0.1
		c0,0,0.1,0,0.1,0c0,0,0.1,0,0.1,0c0,0,0,0,0,0c0,0,0,0,0,0c0.1,0,0.2,0,0.3-0.1c0.3-0.1,0.4-0.4,0.4-0.7V4.8h19.2V46.4z M7.2,4V1.6
		h11.2v20l-5.1-3.8c-0.3-0.2-0.7-0.2-1,0l-5.1,3.8V4z M40,3.2H20V0.8C20,0.4,19.6,0,19.2,0H6.4C6,0,5.6,0.4,5.6,0.8v2.4H0.8
		C0.4,3.2,0,3.6,0,4v43.2C0,47.6,0.4,48,0.8,48H40c0.4,0,0.8-0.4,0.8-0.8V4C40.8,3.6,40.4,3.2,40,3.2z"/>
</g>
</svg>
