<?xml version="1.0" encoding="utf-8"?>
<!-- Generator: Adobe Illustrator 18.1.1, SVG Export Plug-In . SVG Version: 6.00 Build 0)  -->
<svg version="1.1" id="Calque_1" xmlns="http://www.w3.org/2000/svg" xmlns:xlink="http://www.w3.org/1999/xlink" x="0px" y="0px"
	 viewBox="0 0 463 271" enable-background="new 0 0 463 271" xml:space="preserve">
<path d="M455.5,256H447V146.8l4.3,2.9c1.3,0.9,2.7,1.3,4.2,1.3c2.4,0,4.8-1.2,6.2-3.3c2.3-3.4,1.4-8.1-2.1-10.4l-96-64
	c-2.5-1.7-5.8-1.7-8.3,0l-96,64c-3.4,2.3-4.4,7-2.1,10.4c2.3,3.4,7,4.4,10.4,2.1l4.3-2.9V216h-17v-8.5c0-4.1-3.4-7.5-7.5-7.5
	s-7.5,3.4-7.5,7.5v8.5h-17v-8.5c0-4.1-3.4-7.5-7.5-7.5s-7.5,3.4-7.5,7.5v8.5h-17v-17.9c13.8-3.4,24-15.8,24-30.6
	c0-7.3-2.8-23.9-7.4-39.1C201,106.3,193.3,96,183.5,96s-17.5,10.3-24.1,32.4c-4.6,15.2-7.4,31.8-7.4,39.1c0,14.8,10.2,27.2,24,30.6
	V216h-17v-8.5c0-4.1-3.4-7.5-7.5-7.5s-7.5,3.4-7.5,7.5v8.5h-17v-8.5c0-4.1-3.4-7.5-7.5-7.5s-7.5,3.4-7.5,7.5v8.5H95v-25.5
	c27.1-3.7,48-26.9,48-55c0-14.1-5.4-46.4-14.4-76.1C116.5,19.4,103.1,0,87.5,0s-29,19.4-41.1,59.4c-9,29.7-14.4,62-14.4,76.1
	c0,28.1,20.9,51.3,48,55V216H63v-8.5c0-4.1-3.4-7.5-7.5-7.5s-7.5,3.4-7.5,7.5v8.5H31v-8.5c0-4.1-3.4-7.5-7.5-7.5s-7.5,3.4-7.5,7.5
	v8.5H7.5c-4.1,0-7.5,3.4-7.5,7.5s3.4,7.5,7.5,7.5H16v25H7.5c-4.1,0-7.5,3.4-7.5,7.5s3.4,7.5,7.5,7.5h448c4.1,0,7.5-3.4,7.5-7.5
	S459.6,256,455.5,256 M167,167.5c0-5.4,2.3-19.2,5.9-32c4.5-15.8,8.7-22.2,10.6-24.1c1.9,1.9,6.1,8.3,10.6,24.1
	c3.6,12.8,5.9,26.6,5.9,32c0,6.4-3.7,11.9-9,14.7v-6.7c0-4.1-3.4-7.5-7.5-7.5s-7.5,3.4-7.5,7.5v6.7C170.7,179.4,167,173.9,167,167.5
	 M47,135.5c0-12.7,5.3-43.7,13.7-71.8c4.6-15.1,9.6-27.6,14.6-36.2C80.6,18.3,85.1,15,87.5,15s6.9,3.3,12.2,12.5
	c5,8.6,10,21.1,14.6,36.2c8.5,28,13.7,59.1,13.7,71.8c0,19.8-14.2,36.3-33,39.8v-36.7l13.8-13.8c2.9-2.9,2.9-7.7,0-10.6
	c-2.9-2.9-7.7-2.9-10.6,0l-3.2,3.2v-13.9c0-4.1-3.4-7.5-7.5-7.5s-7.5,3.4-7.5,7.5v32v0v5.9l-3.2-3.2c-2.9-2.9-7.7-2.9-10.6,0
	c-2.9,2.9-2.9,7.7,0,10.6L80,162.6v12.7C61.2,171.8,47,155.3,47,135.5 M272,256h-17v-25h17V256z M240,256h-17v-25h17V256z M208,256
	h-17v-25h17V256z M176,256h-17v-25h17V256z M144,256h-17v-25h17V256z M112,256H95v-25h17V256z M80,256H63v-25h17V256z M31,231h17v25
	H31V231z M287,256V136.8l72.5-48.3l72.5,48.3V256H287z"/>
<path d="M343.5,160h-32c-4.1,0-7.5,3.4-7.5,7.5v64c0,4.1,3.4,7.5,7.5,7.5h32c4.1,0,7.5-3.4,7.5-7.5v-64
	C351,163.4,347.6,160,343.5,160 M336,184h-17v-9h17V184z M319,199h17v25h-17V199z"/>
<path d="M407.5,160h-32c-4.1,0-7.5,3.4-7.5,7.5v64c0,4.1,3.4,7.5,7.5,7.5h32c4.1,0,7.5-3.4,7.5-7.5v-64
	C415,163.4,411.6,160,407.5,160 M400,184h-17v-9h17V184z M383,199h17v25h-17V199z"/>
</svg>
