<svg xmlns="http://www.w3.org/2000/svg" viewBox="0 0 60 60">
  <path d="M59.1 36.5c-.4-.5-.9-.9-1.4-1.1-.3-5.2-4.7-9.4-10-9.4H34.2c-1.5 0-2.9.3-4.2.9-1.3-.6-2.8-.9-4.2-.9H13.1c-5.2 0-9.5 4-10 9.1-.9.2-1.7.7-2.3 1.5-.8 1-1 2.3-.7 3.5l2.3 11.4v.1C3 53 4.4 54 5.9 54H6v6h4.7l2-6h35.6l2 6H55v-6c1.5-.1 2.8-1.2 3.2-2.6l1.7-11.5c.3-1.3 0-2.5-.8-3.4M47.7 28c4.1 0 7.5 3.1 7.9 7-.1 0-.3 0-.4.1-.2 0-.3 0-.5.1-.2 0-.4.1-.5.2-.2 0-.3.1-.4.2-.2.1-.3.2-.5.3-.1.1-.3.1-.4.2-.2.1-.3.2-.5.4l-.3.3c-.2.2-.3.3-.4.5-.1.1-.2.2-.2.3-.2.2-.3.4-.4.7 0 .1-.1.1-.1.2-.1.3-.3.6-.3.9v.1c-.1.3-.2.7-.2 1l-.4 3.5H31V28.7c1-.4 2.1-.7 3.2-.7h13.5zm-34.6 0h12.7c1.1 0 2.2.2 3.2.7V44H10.2l-.6-4.2c0-.3-.1-.6-.2-.9 0-.1-.1-.2-.1-.3L9 38c-.1-.1-.1-.2-.2-.3-.1-.2-.2-.3-.3-.5-.1-.1-.2-.2-.2-.3l-.4-.4c-.1-.1-.2-.2-.3-.2-.1-.1-.3-.2-.5-.3-.1-.1-.2-.1-.3-.2l-.6-.3c-.1 0-.2-.1-.3-.1l-.9-.3c.6-4 3.9-7.1 8.1-7.1M5.9 52c-.7 0-1.3-.4-1.5-1L2.1 39.6c-.2-.6 0-1.3.3-1.8.4-.5 1-.8 1.6-.8 1.8 0 3.3 1.3 3.6 3.1L8.9 52h-3zm3.4 6H8v-4h2.6l-1.3 4zm4.1-6H11l-.5-6H50l-.3 6H13.4zM53 58h-1.3l-1.3-4H53v4zm5-18.5l-1.7 11.4c-.3.6-.9 1.1-1.6 1.1h-2.9l.6-11.6c.1-1.9 1.7-3.4 3.6-3.4.6 0 1.2.3 1.6.7.3.5.5 1.1.4 1.8"/>
  <path d="M14.3 39.7c.2.2.5.3.7.3s.5-.1.7-.3l.9-.9c.4.2.9.3 1.4.3s.9-.1 1.4-.3l.9.9c.2.2.5.3.7.3s.5-.1.7-.3c.4-.4.4-1 0-1.4l-.9-.9c.4-.9.4-1.9 0-2.7l.9-.9c.4-.4.4-1 0-1.4-.4-.4-1-.4-1.4 0l-.9.9c-.9-.4-1.9-.4-2.7 0l-.9-.9c-.4-.4-1-.4-1.4 0-.4.4-.4 1 0 1.4l.9.9c-.4.9-.4 1.9 0 2.7l-.9.9c-.5.4-.5 1-.1 1.4m4.5-4.5c.4.4.4 1.1 0 1.6-.4.4-1.1.4-1.6 0s-.4-1.1 0-1.6c.2-.2.5-.3.8-.3s.6.1.8.3m19.5 4.5c.2.2.5.3.7.3.3 0 .5-.1.7-.3l.9-.9c.4.2.9.3 1.4.3s.9-.1 1.4-.3l.9.9c.2.2.5.3.7.3s.5-.1.7-.3c.4-.4.4-1 0-1.4l-.9-.9c.4-.9.4-1.9 0-2.7l.9-.9c.4-.4.4-1 0-1.4-.4-.4-1-.4-1.4 0l-.9.9c-.9-.4-1.9-.4-2.7 0l-.9-.9c-.4-.4-1-.4-1.4 0-.4.4-.4 1 0 1.4l.9.9c-.4.9-.4 1.9 0 2.7l-.9.9c-.5.4-.5 1-.1 1.4m4.5-4.5c.4.4.4 1.1 0 1.6-.4.4-1.1.4-1.6 0s-.4-1.1 0-1.6c.2-.2.5-.3.8-.3.3 0 .6.1.8.3M22 21h5v-3h23v3h5v-3h3v-6h-3V2h-4V0h-6v3h-2.8c-.4 0-.8.2-1.1.6L35.5 12H19v6h3v3zm3-2h-1v-1h1v1zm28 0h-1v-1h1v1zm0-7h-2V4h2v8zM47 2h2v10h-2V2zm-2 10h-3.1L45 7.3V12zm-2.5-7h1.6l-4.7 7h-1.6l4.7-7zM21 16v-2h35v2H21z"/>
</svg>
