<svg xmlns="http://www.w3.org/2000/svg" viewBox="0 0 483 365.2">
  <path d="M197.4 181.3c-.3.3-.5.6-.5 1v40.2c0 .6.4 1.1.9 1.3l26 8.7c.1 0 .3.1.4.1.3 0 .6-.1.8-.3.4-.3.6-.7.6-1.1v-45c0-.7-.5-1.2-1.2-1.3l-26-3.8c-.3-.2-.7-.1-1 .2m-13.4-2.5l-18.4-2.7c-.4-.1-.8.1-1.1.3-.3.3-.5.6-.5 1v34c0 .6.4 1.1.9 1.3l18.4 6.1c.1 0 .3.1.4.1.3 0 .6-.1.8-.3.4-.3.6-.7.6-1.1v-37.4c0-.6-.5-1.2-1.1-1.3"/>
  <path d="M353.1 148.9l-57-76.3s-.5-.9-1.8-1.4c-1.3-.5-2.5-.2-2.5-.2l-89.5 22.9V86c0-1.9-1.3-3.6-3.2-4l-7.5-1.7s-.5-.1-1.2-.1-1.1.2-1.1.2l-13.5 4.8c-1.6.6-2.7 2.1-2.7 3.8v12.3l-14.2 3.6c-1.1.3-2.1 1.1-2.6 2.1l-22.8 45.1c-.6 1.3-.6 2.7.1 3.9.7 1.2 2 1.9 3.4 2l10.8.2v80c0 1.5.8 2.9 2.2 3.6l93.5 48.6s.8.5 1.9.5c1.1 0 1.9-.5 1.9-.5l90.6-47.2c1.3-.7 2.2-2.1 2.2-3.6l.2-85.2 9.2.6s2.4.3 3.8-1.9c1.5-2-.2-4.2-.2-4.2M241.5 280.5l-85.3-44.4v-77.4l68.1 1.4 17.2.3v120.1zm95.1-134.1c-1.1-.1-2.2.3-3.1 1.1-.8.8-1.3 1.9-1.3 3l-.2 87.1-23.4 12.2v-75.5c0-.4-.2-.7-.4-1-.3-.3-.7-.4-1-.4l-22.5 1.9c-.7.1-1.2.7-1.2 1.4v86.7l-33.8 17.6v-124c0-2.2-1.8-4-4-4.1l-12.6-.2 59.7-70.5 48.6 65-4.8-.3z"/>
  <path d="M369.3 0H0v365.2h483V114.7L369.3 0zm90.2 110.5h-87v-87l87 87zm-92.9 13.9h102.5v228H13.9V13.9h345.8v103.6c0 4.3 3.6 6.9 6.9 6.9"/>
</svg>
