<svg xmlns="http://www.w3.org/2000/svg" viewBox="0 0 555 180">
  <path fill="#222" d="M359.8 37.5H334v76h25.7c21.6 0 39.3-17 39.3-38 0-20.9-17.6-37.9-39.2-38zm30.4 38c0 16.3-13.7 29.5-30.6 29.5h-16.7V46h16.7c16.8 0 30.6 13.2 30.6 29.5zm155.3-16.7c0-11.8-11.7-21.4-26.1-21.4h-33.2v76.1h8.8V80.1h20.6l22.6 33.3.1.1h10.5l-23.2-34c11.6-2.4 19.9-11 19.9-20.7zm-9 0c0 7.2-7.7 13.1-17.1 13.1H495V45.6h24.4c9.4.1 17.1 6 17.1 13.2zm-270.4 54.7h58.8V105H275V78.9h40.4v-8.5H275V46h49.9v-8.5h-58.8"/>
  <path fill="#00B7AA" d="M249.7 91.4c-5.6 8.7-15.4 14.3-26.3 14.9-.7 0-1.4.1-2 .1-8.1 0-15.8-2.8-21.9-7.8-6.6-5.5-10.5-13-11.1-21.2-.5-8.2 2.4-16.2 8.2-22.3 5.8-6.2 13.9-9.9 22.7-10.4.7 0 1.4-.1 2.1-.1 10.1 0 19.6 4.3 25.9 11.9l.5.6 7.3-5.4-.5-.6c-8.1-9.6-20.2-15.2-33.3-15.2-.8 0-1.7 0-2.6.1-11.3.6-21.6 5.4-29.1 13.3S178.4 67.4 179.1 78c.7 10.6 5.7 20.2 14.2 27.3 7.7 6.4 17.7 9.9 27.9 9.9.8 0 1.7 0 2.6-.1 13.9-.8 26.4-7.9 33.6-19.1l.4-.7-7.9-4.5-.2.6z"/>
  <path fill="#222" d="M442.4 37.8h-8.2l-35 75.4h10.3l10.1-22.4h37.1l.2.4 10.1 22.1h10.3l-34.9-75.5zm-21.1 46.6l.2-.4 16.8-37.1.6 1.3 16 36.2h-33.6z"/>
  <path fill="#009A9E" d="M240.2 137.2c-.2-.2-.4-.4-.8-.6-.3-.2-.7-.4-1.2-.6-.5-.2-1-.4-1.5-.5-.6-.1-1.2-.2-1.8-.2-1.2 0-2.1.2-2.7.7-.6.5-.9 1.1-.9 1.9 0 .5.1.8.3 1.1.2.3.5.5.9.8.4.2.9.4 1.5.6.6.2 1.3.4 2.1.5.9.2 1.8.5 2.6.8.8.3 1.5.6 2 1 .6.4 1 .9 1.3 1.5.3.6.5 1.3.5 2.2 0 1-.2 1.8-.6 2.5-.4.7-.9 1.3-1.5 1.7-.6.4-1.4.8-2.2 1-.9.2-1.8.3-2.7.3-1.5 0-2.9-.2-4.3-.7-1.4-.4-2.6-1.1-3.7-1.9l1.4-2.6c.2.2.6.5 1 .8.4.3.9.5 1.5.8.6.2 1.2.4 1.9.6.7.2 1.4.3 2.2.3 1.2 0 2.1-.2 2.7-.6.6-.4 1-1 1-1.8 0-.5-.1-.9-.4-1.2-.2-.3-.6-.6-1-.8s-1-.5-1.7-.6c-.7-.2-1.4-.4-2.2-.6-1-.2-1.8-.5-2.5-.8-.7-.3-1.3-.6-1.8-1s-.8-.8-1.1-1.4c-.2-.5-.4-1.2-.4-1.9 0-.9.2-1.7.5-2.5.4-.7.8-1.3 1.5-1.8.6-.5 1.4-.9 2.2-1.1s1.8-.4 2.7-.4c1.3 0 2.6.2 3.7.6 1.1.4 2.1.9 2.9 1.5l-1.4 2.4zm54.1-1.8h-6.4v16.3h-3v-16.3h-6.4v-2.6h15.9v2.6zm45.5 13.7c1 0 1.9-.2 2.5-.6.7-.4 1.2-.9 1.6-1.5.4-.6.7-1.4.9-2.2.2-.8.3-1.6.3-2.5v-9.6h3.1v9.6c0 1.3-.2 2.5-.5 3.7-.3 1.1-.8 2.2-1.5 3-.7.9-1.5 1.5-2.6 2s-2.3.7-3.8.7-2.8-.3-3.9-.8-1.9-1.2-2.6-2.1c-.7-.9-1.1-1.9-1.4-3-.3-1.1-.4-2.3-.4-3.5v-9.6h3v9.6c0 .9.1 1.7.3 2.5.2.8.5 1.5.9 2.2.4.6 1 1.1 1.6 1.5.6.4 1.5.6 2.5.6zm47.2 2.6v-18.9h6.9c1.6 0 2.9.2 4.1.7 1.2.5 2.1 1.2 2.9 2 .8.9 1.4 1.9 1.8 3 .4 1.1.6 2.4.6 3.7 0 1.4-.2 2.7-.7 3.9-.4 1.2-1.1 2.2-1.9 3-.8.8-1.8 1.5-3 1.9-1.2.5-2.5.7-3.9.7H387zm13.1-9.5c0-1-.1-1.9-.4-2.7-.3-.8-.7-1.5-1.2-2.1-.5-.6-1.2-1.1-2-1.4-.8-.3-1.7-.5-2.7-.5H390V149h3.8c1 0 1.9-.2 2.7-.5.8-.3 1.4-.8 2-1.4.5-.6.9-1.3 1.2-2.2.3-.8.4-1.7.4-2.7zm41.2 9.5v-18.9h3v18.9h-3zm50.2.1c-1.4 0-2.6-.3-3.7-.8s-2.1-1.3-2.9-2.2c-.8-.9-1.4-1.9-1.9-3.1-.4-1.2-.7-2.3-.7-3.5 0-1.3.2-2.5.7-3.6.5-1.2 1.1-2.2 1.9-3.1.8-.9 1.8-1.6 2.9-2.1 1.1-.5 2.3-.8 3.7-.8 1.4 0 2.6.3 3.7.8 1.1.6 2.1 1.3 2.9 2.2.8.9 1.4 1.9 1.9 3.1.4 1.1.7 2.3.7 3.5 0 1.3-.2 2.5-.7 3.6-.5 1.2-1.1 2.2-1.9 3.1-.8.9-1.8 1.6-2.9 2.1-1.2.5-2.4.8-3.7.8zm-6.1-9.6c0 .9.1 1.8.4 2.6.3.8.7 1.6 1.2 2.2s1.2 1.2 1.9 1.5c.7.4 1.6.6 2.5.6.9 0 1.8-.2 2.5-.6.8-.4 1.4-.9 1.9-1.6.5-.7.9-1.4 1.2-2.2.3-.8.4-1.7.4-2.5 0-.9-.1-1.8-.4-2.6-.3-.8-.7-1.6-1.2-2.2-.5-.6-1.2-1.1-1.9-1.5-.7-.4-1.6-.6-2.5-.6-.9 0-1.8.2-2.5.6-.8.4-1.4.9-1.9 1.6s-.9 1.4-1.2 2.2c-.2.8-.4 1.7-.4 2.5zm-291.9-.8h20.8v1.7h-20.8zm320.2 0h20.8v1.7h-20.8z"/>
  <path fill="#222" d="M92.2 145.3V32l-2.9 40.5-13.2-9.2L89 76.2l-.7 10.5L68 75.8l20 16.3-1 14.2-28.5-14.8s21.9 17.1 28 22.3l-1 13.2-38.8-14.7s29.2 17.4 38.2 23.1l-.7 9.9h8z"/>
  <path fill="#3B3B3B" d="M129.8 97.9l-31.6 18.9-1.2-16.2 21.5-22.7-21.9 16.8-.9-13.7 12.5-19.7-13 12.4-3-41.6v113.2h8l-1.4-20"/>
  <path fill="#15AF56" d="M125 88l-1.2 12.8 13.7 8.6"/>
  <path fill="#00B7AA" d="M114.5 80.5l-.3-10.7 9.8 16.5"/>
  <path fill="#F16F30" d="M61.9 84l22.9 16.1-21.6-5.7"/>
  <path fill="#D02350" d="M70.2 69.7l16.6 12.4-20.7-.2"/>
  <path fill="#FBB532" d="M51.3 102.1l2.7 12.4 28.4 7"/>
  <path fill="#1689C7" d="M92.2 32.1l11.4 30.2 9.9 6.1"/>
  <path fill="#8762A7" d="M92.2 68.4V32.1L80.8 62.3"/>
  <path fill="#00B7AA" d="M152.3 128.4l-.1-.1-.1.1c-12.5 20.7-34.3 34-58.5 35.5-1.5.1-3 .1-4.5.1-17.9 0-35.2-6.5-48.7-18.4-14.6-13-23.4-31-24.6-50.6-1.2-19.6 5.3-38.5 18.3-53.2 13-14.7 30.9-23.5 50.5-24.6 1.5-.1 3-.1 4.5-.1 22.7 0 43.8 10.3 57.9 28.2l.1.1 7.5-5.9-.1-.1C138.6 19.2 114.8 7.6 89.2 7.6c-1.7 0-3.4.1-5.1.2C62 9.1 41.7 19 27 35.6 12.3 52.2 5 73.5 6.3 95.6c1.4 22.1 11.2 42.4 27.8 57.1 15.2 13.4 34.7 20.8 54.9 20.8 1.7 0 3.4-.1 5.2-.2 27.2-1.7 51.9-16.6 66-40l.1-.1-8-4.8z"/>
  <path fill="#B46F21" d="M40 121.5l11.3-19.4 2.7 12.4"/>
  <path fill="#008440" d="M125 88l-24.6 21.4 23.4-8.6"/>
  <path fill="#B1511F" d="M61.9 84l1.3 10.4-10.7 5.7"/>
  <path fill="#008A80" d="M97.9 86.4l16.6-5.9-.2-10.7"/>
  <path fill="#9D133A" d="M70.2 69.7l.9 7.7-8.1 4.7"/>
  <path fill="#0F6796" d="M92.2 68.4V32.1l11.4 30.2"/>
  <path fill="#4C447D" d="M92.2 32.1L80.8 62.3l-9.9 6.1"/>
  <path fill="#7C032A" d="M63 82.1h23.8l-15.7-4.7"/>
  <path fill="#8C3E10" d="M52.5 100.1h32.3l-21.6-5.7"/>
  <path fill="#8E4D12" d="M40 121.5h42.4l-28.4-7"/>
  <path fill="#006A30" d="M100.4 109.4h37.1l-13.7-8.6"/>
  <path fill="#006E66" d="M97.9 86.4l26.1-.1-9.5-5.8"/>
  <path fill="#015078" d="M92.2 68.4h21.3l-9.9-6.1"/>
  <path fill="#503564" d="M92.2 68.4H70.9l9.9-6.1"/>
</svg>