<?xml version="1.0" encoding="utf-8"?>
<!-- Generator: Adobe Illustrator 18.1.1, SVG Export Plug-In . SVG Version: 6.00 Build 0)  -->
<svg version="1.1" xmlns="http://www.w3.org/2000/svg" xmlns:xlink="http://www.w3.org/1999/xlink" x="0px" y="0px"
	 viewBox="0 0 621.1 165.9" enable-background="new 0 0 621.1 165.9" xml:space="preserve">
<g id="Calque_2">
</g>
<g id="Calque_1">
	<g>
		<g>
			<g>
				<path fill="#222222" d="M352.3,29h-25.6v77.8h25.6c21.5,0,39.1-17.5,39.1-38.9C391.3,46.5,373.8,29.1,352.3,29z M382.5,67.9
					c0,16.7-13.7,30.2-30.5,30.2h-16.7V37.7H352C368.8,37.7,382.5,51.2,382.5,67.9z"/>
			</g>
			<g>
				<path fill="#222222" d="M458.9,50.9c0-12.1-11.6-21.9-25.9-21.9h-33.1v77.9h8.7V72.7h20.5l22.5,34.1l0.1,0.1h10.5l-23.1-34.8
					C450.6,69.6,458.9,60.8,458.9,50.9z M450,50.9c0,7.3-7.6,13.4-17,13.4h-24.3v-27h24.3C442.3,37.4,450,43.5,450,50.9z"/>
			</g>
			<g>
				<polygon fill="#222222" points="470.4,106.8 529,106.8 529,98.1 479.2,98.1 479.2,71.3 519.4,71.3 519.4,62.6 479.2,62.6 
					479.2,37.5 529,37.5 529,28.9 470.4,28.9 				"/>
			</g>
			<g>
				<polygon fill="#222222" points="259,106.8 317.6,106.8 317.6,98.1 267.8,98.1 267.8,71.4 308,71.4 308,62.7 267.8,62.7 
					267.8,37.7 317.6,37.7 317.6,29 259,29 				"/>
			</g>
			<g>
				<path fill="#222222" d="M242.7,84.3c-5.6,8.9-15.4,14.6-26.2,15.3c-0.7,0-1.4,0.1-2,0.1c-8,0-15.8-2.8-21.8-7.9
					c-6.6-5.6-10.5-13.3-11-21.8c-0.5-8.4,2.4-16.6,8.2-22.9c5.8-6.3,13.8-10.1,22.6-10.6c0.7,0,1.4-0.1,2.1-0.1
					c10.1,0,19.5,4.4,25.8,12.2l0.5,0.6l7.3-5.5l-0.5-0.6c-8-9.9-20.1-15.5-33.1-15.5c-0.8,0-1.7,0-2.6,0.1
					c-11.2,0.7-21.5,5.5-28.9,13.6c-7.5,8.1-11.2,18.5-10.5,29.4c0.7,10.8,5.7,20.7,14.1,27.9c7.7,6.6,17.6,10.2,27.8,10.2
					c0.8,0,1.7,0,2.6-0.1c13.8-0.8,26.3-8.1,33.5-19.6l0.4-0.7l-7.9-4.6L242.7,84.3z"/>
			</g>
			<g>
				<path fill="#222222" d="M547,40.9c-7.2,7.6-11.1,17.4-11.1,27.6s3.9,20,11.1,27.6c7.1,7.5,16.8,12.2,27.2,13.1l0.3,0V100l-0.3,0
					c-16.7-1.9-28.9-15.1-28.9-31.5s12.1-29.6,28.9-31.5l0.3,0v-9.3l-0.3,0C563.8,28.8,554.2,33.4,547,40.9z"/>
			</g>
			<g>
				<path fill="#00B7AA" d="M609.7,41c-7.1-7.5-16.8-12.2-27.2-13.2l-0.3,0v9.3l0.3,0c16.5,2,28.9,15.5,28.9,31.4
					S598.9,98,582.4,100l-0.3,0v9.3l0.3,0c10.4-1,20.1-5.7,27.2-13.2c7.2-7.6,11.1-17.3,11.1-27.6S616.8,48.5,609.7,41z"/>
			</g>
		</g>
		<g>
			<rect x="185.8" y="138.9" fill="#009A9E" width="66.5" height="1.9"/>
			<rect x="540.9" y="138.9" fill="#009A9E" width="66.5" height="1.9"/>
			<g>
				<path fill="#009A9E" d="M277,132.9c-0.2-0.2-0.4-0.4-0.8-0.6c-0.3-0.2-0.7-0.4-1.2-0.6c-0.4-0.2-0.9-0.3-1.5-0.5
					c-0.5-0.1-1.1-0.2-1.7-0.2c-1.2,0-2,0.2-2.6,0.7c-0.6,0.4-0.9,1.1-0.9,1.9c0,0.4,0.1,0.8,0.3,1.1c0.2,0.3,0.5,0.5,0.9,0.7
					c0.4,0.2,0.9,0.4,1.4,0.6c0.6,0.2,1.3,0.3,2,0.5c0.9,0.2,1.7,0.5,2.5,0.7c0.8,0.3,1.4,0.6,1.9,1c0.5,0.4,0.9,0.9,1.2,1.4
					c0.3,0.6,0.4,1.3,0.4,2.1c0,1-0.2,1.8-0.6,2.4c-0.4,0.7-0.9,1.2-1.5,1.6c-0.6,0.4-1.3,0.7-2.2,0.9c-0.8,0.2-1.7,0.3-2.6,0.3
					c-1.4,0-2.8-0.2-4.1-0.6c-1.3-0.4-2.5-1-3.6-1.8l1.4-2.5c0.2,0.2,0.6,0.5,1,0.7c0.4,0.3,0.9,0.5,1.5,0.8
					c0.6,0.2,1.2,0.4,1.9,0.6c0.7,0.2,1.4,0.2,2.1,0.2c1.1,0,2-0.2,2.6-0.6c0.6-0.4,0.9-1,0.9-1.8c0-0.5-0.1-0.9-0.3-1.2
					s-0.6-0.6-1-0.8c-0.4-0.2-1-0.4-1.6-0.6c-0.6-0.2-1.4-0.4-2.2-0.6c-0.9-0.2-1.7-0.5-2.4-0.8c-0.7-0.3-1.3-0.6-1.7-1
					c-0.5-0.4-0.8-0.8-1-1.3c-0.2-0.5-0.4-1.1-0.4-1.8c0-0.9,0.2-1.7,0.5-2.4c0.3-0.7,0.8-1.3,1.4-1.8c0.6-0.5,1.3-0.8,2.1-1.1
					s1.7-0.4,2.7-0.4c1.3,0,2.5,0.2,3.5,0.6c1.1,0.4,2,0.9,2.8,1.5L277,132.9z"/>
				<path fill="#009A9E" d="M329.3,131.1h-6.2v15.7h-2.9v-15.7h-6.2v-2.5h15.4V131.1z"/>
				<path fill="#009A9E" d="M373.2,144.4c1,0,1.8-0.2,2.4-0.6c0.6-0.4,1.2-0.9,1.6-1.5c0.4-0.6,0.7-1.3,0.8-2.1
					c0.2-0.8,0.3-1.6,0.3-2.4v-9.3h3v9.3c0,1.3-0.1,2.4-0.4,3.5c-0.3,1.1-0.8,2.1-1.4,2.9c-0.6,0.8-1.5,1.5-2.5,2
					c-1,0.5-2.3,0.7-3.7,0.7c-1.5,0-2.7-0.3-3.8-0.8c-1-0.5-1.9-1.2-2.5-2c-0.6-0.9-1.1-1.8-1.4-2.9s-0.4-2.2-0.4-3.4v-9.3h2.9v9.3
					c0,0.8,0.1,1.7,0.2,2.4c0.2,0.8,0.4,1.5,0.8,2.1c0.4,0.6,0.9,1.1,1.6,1.5C371.5,144.2,372.3,144.4,373.2,144.4z"/>
				<path fill="#009A9E" d="M418.8,146.8v-18.3h6.6c1.5,0,2.8,0.2,4,0.7c1.1,0.5,2.1,1.1,2.8,2c0.8,0.8,1.3,1.8,1.7,2.9
					c0.4,1.1,0.6,2.3,0.6,3.5c0,1.4-0.2,2.6-0.6,3.8c-0.4,1.1-1,2.1-1.8,2.9c-0.8,0.8-1.7,1.4-2.9,1.9c-1.1,0.4-2.4,0.7-3.8,0.7
					H418.8z M431.6,137.7c0-1-0.1-1.8-0.4-2.7c-0.3-0.8-0.7-1.5-1.2-2.1c-0.5-0.6-1.2-1-1.9-1.4c-0.8-0.3-1.6-0.5-2.6-0.5h-3.7v13.2
					h3.7c1,0,1.9-0.2,2.6-0.5c0.8-0.3,1.4-0.8,1.9-1.4s0.9-1.3,1.2-2.1S431.6,138.6,431.6,137.7z"/>
				<path fill="#009A9E" d="M471.4,146.8v-18.3h2.9v18.3H471.4z"/>
				<path fill="#009A9E" d="M519.8,147c-1.3,0-2.5-0.3-3.6-0.8c-1.1-0.5-2-1.2-2.8-2.1c-0.8-0.9-1.4-1.9-1.8-3
					c-0.4-1.1-0.6-2.3-0.6-3.4c0-1.2,0.2-2.4,0.7-3.5c0.4-1.1,1.1-2.1,1.9-3c0.8-0.9,1.7-1.5,2.8-2c1.1-0.5,2.3-0.8,3.5-0.8
					c1.3,0,2.5,0.3,3.6,0.8c1.1,0.5,2,1.2,2.8,2.1c0.8,0.9,1.4,1.9,1.8,3c0.4,1.1,0.6,2.2,0.6,3.4c0,1.2-0.2,2.4-0.7,3.5
					c-0.4,1.1-1.1,2.1-1.9,2.9c-0.8,0.9-1.7,1.5-2.8,2C522.3,146.7,521.1,147,519.8,147z M514,137.7c0,0.9,0.1,1.7,0.4,2.5
					c0.3,0.8,0.7,1.5,1.2,2.1c0.5,0.6,1.1,1.1,1.8,1.5c0.7,0.4,1.5,0.6,2.4,0.6c0.9,0,1.7-0.2,2.5-0.6c0.7-0.4,1.3-0.9,1.8-1.5
					c0.5-0.6,0.9-1.3,1.1-2.1c0.3-0.8,0.4-1.6,0.4-2.4c0-0.9-0.1-1.7-0.4-2.5c-0.3-0.8-0.7-1.5-1.2-2.1c-0.5-0.6-1.1-1.1-1.8-1.5
					c-0.7-0.4-1.5-0.6-2.4-0.6c-0.9,0-1.7,0.2-2.5,0.6c-0.7,0.4-1.3,0.9-1.8,1.5c-0.5,0.6-0.9,1.3-1.1,2.1
					C514.1,136.1,514,136.9,514,137.7z"/>
			</g>
		</g>
	</g>
	<g>
		<path fill="#222222" d="M86,137.7l0-113.3L83.2,65L70,55.9l12.9,12.9l-0.7,10.5L61.8,68.2l20,16.3l-1,14.2L52.3,83.9
			c0,0,21.9,17.1,28,22.3l-0.9,13.2l-38.8-14.7c0,0,29.2,17.4,38.2,23.1l-0.7,9.9H86z"/>
		<polygon fill="#3B3B3B" points="123.6,90.3 92,109.2 90.9,93 112.3,70.3 90.4,87.1 89.5,73.4 102,53.7 89,66.1 86,24.5 86,137.7 
			94,137.7 92.6,117.8 		"/>
		<polygon fill="#15AF56" points="118.8,80.5 117.7,93.2 131.3,101.8 		"/>
		<g>
			<polygon fill="#00B7AA" points="108.3,72.9 108,62.2 117.9,78.7 			"/>
		</g>
		<polygon fill="#F16F30" points="55.7,76.4 78.6,92.5 57,86.8 		"/>
		<polygon fill="#D02350" points="64.1,62.1 80.6,74.5 59.9,74.3 		"/>
		<polygon fill="#FBB532" points="45.1,94.5 47.8,106.9 76.2,113.9 		"/>
		<polygon fill="#1689C7" points="86,24.5 97.4,54.8 107.3,60.8 		"/>
		<polygon fill="#8762A7" points="86,60.8 86,24.5 74.7,54.8 		"/>
		<path fill="#00B7AA" d="M146.1,120.8l-0.1-0.1l-0.1,0.1c-12.5,20.7-34.3,34-58.5,35.5c-1.5,0.1-3,0.1-4.5,0.1
			c-17.9,0-35.2-6.5-48.7-18.4C19.6,125,10.8,107,9.6,87.4C8.4,67.9,14.9,49,27.9,34.3c13-14.7,30.9-23.5,50.5-24.6
			c1.5-0.1,3-0.1,4.5-0.1c22.7,0,43.8,10.3,57.9,28.2l0.1,0.1l7.5-5.9l-0.1-0.1C132.4,11.6,108.6,0,83,0c-1.7,0-3.4,0.1-5.1,0.2
			C55.8,1.5,35.5,11.4,20.8,28C6.1,44.6-1.2,65.9,0.2,88c1.4,22.1,11.2,42.4,27.8,57.1c15.2,13.4,34.7,20.8,54.9,20.8
			c1.7,0,3.4-0.1,5.2-0.2c27.2-1.7,51.9-16.6,66-40l0.1-0.1L146.1,120.8z"/>
		<polygon fill="#B46F21" points="33.8,113.9 45.1,94.5 47.8,106.9 		"/>
		<polygon fill="#008440" points="118.8,80.5 94.3,101.8 117.7,93.2 		"/>
		<polygon fill="#B1511F" points="55.7,76.4 57,86.8 46.3,92.5 		"/>
		<polygon fill="#008A80" points="91.8,78.8 108.3,72.9 108.1,62.2 		"/>
		<polygon fill="#9D133A" points="64.1,62.1 65,69.9 56.8,74.5 		"/>
		<polygon fill="#0F6796" points="86,60.8 86,24.5 97.4,54.8 		"/>
		<polygon fill="#4C447D" points="86,24.5 74.7,54.8 64.7,60.8 		"/>
		<polygon fill="#7C032A" points="56.8,74.5 80.6,74.5 65,69.9 		"/>
		<polygon fill="#8C3E10" points="46.3,92.5 78.6,92.5 57,86.8 		"/>
		<polygon fill="#8E4D12" points="33.8,113.9 76.2,113.9 47.8,106.9 		"/>
		<polygon fill="#006A30" points="94.3,101.8 131.3,101.8 117.7,93.2 		"/>
		<polygon fill="#006E66" points="91.8,78.8 117.8,78.8 108.3,72.9 		"/>
		<polygon fill="#015078" points="86,60.8 107.3,60.8 97.4,54.8 		"/>
		<polygon fill="#503564" points="86,60.8 64.7,60.8 74.7,54.8 		"/>
	</g>
</g>
</svg>
