<?xml version="1.0" encoding="utf-8"?>
<!-- Generator: Adobe Illustrator 18.1.1, SVG Export Plug-In . SVG Version: 6.00 Build 0)  -->
<svg version="1.1" id="Calque_1" xmlns="http://www.w3.org/2000/svg" xmlns:xlink="http://www.w3.org/1999/xlink" x="0px" y="0px"
	 viewBox="0 0 76.8 74.9" enable-background="new 0 0 76.8 74.9" xml:space="preserve">
<path fill="#231F20" d="M23,17.5c5,1.1,10.1,1.7,15.2,1.7s10.2-0.6,15.2-1.7c0.5-0.1,0.9-0.6,0.8-1.1C53.5,9.6,48.7,4,42.4,2.2V1
	c0-0.6-0.4-1-1-1c-0.6,0-1,0.4-1,1v0.8c-0.7-0.1-1.4-0.2-2.2-0.2c-0.7,0-1.5,0.1-2.2,0.2V1c0-0.6-0.4-1-1-1c-0.6,0-1,0.4-1,1v1.2
	C27.9,4,23,9.6,22.3,16.5C22.2,17,22.5,17.4,23,17.5 M34.1,4.3v3.1c0,0.6,0.4,1,1,1c0.6,0,1-0.4,1-1V3.8c0.7-0.1,1.4-0.2,2.2-0.2
	c0.7,0,1.5,0.1,2.2,0.2v3.6c0,0.6,0.4,1,1,1c0.6,0,1-0.4,1-1V4.3c4.9,1.6,8.8,6.1,9.7,11.5c-9.1,1.9-18.6,1.9-27.8,0
	C25.3,10.3,29.1,5.9,34.1,4.3 M44.5,14.7c-2,0.5-4.1,0.7-6.2,0.7c-2.1,0-4.2-0.2-6.2-0.7c-0.5-0.1-0.9-0.7-0.8-1.2
	c0.1-0.5,0.7-0.9,1.2-0.8c3.8,0.8,7.7,0.8,11.5,0c0.5-0.1,1.1,0.2,1.2,0.8C45.3,14,45,14.6,44.5,14.7 M21.6,22.1
	c0-0.6,0.1-2.6,1.5-3.2c1.4-0.5,2.8,0.9,3.1,1.2c0.4,0.4,0.4,1,0,1.4c-0.4,0.4-1,0.4-1.4,0c-0.3-0.3-0.7-0.6-0.9-0.7
	c-0.1,0.1-0.2,0.5-0.2,1.3c-0.1,3.5,2.6,4.4,2.6,4.4c0.3,0.1,0.6,0.4,0.6,0.7l0,0.2c0,0.1,0,0.1,0,0.2c0.8,9.1,8,12.1,11.3,12.1
	c3.4,0,10.6-2.9,11.3-12.1c0-0.1,0-0.1,0-0.2l0-0.2c0.1-0.3,0.3-0.6,0.6-0.7c0.1,0,2.7-1,2.6-4.4c0-0.8-0.2-1.2-0.2-1.3
	c-0.2,0.1-0.6,0.4-0.9,0.7c-0.4,0.4-1,0.4-1.4,0c-0.4-0.4-0.4-1,0-1.4c0.3-0.3,1.7-1.7,3.1-1.2c1.4,0.5,1.5,2.5,1.5,3.2
	c0.1,3.5-1.9,5.4-3.4,6.1c-1,9.3-8.3,13.4-13.3,13.4c-5,0-12.3-4.2-13.3-13.4C23.5,27.4,21.5,25.5,21.6,22.1 M39.8,21.9
	c-0.3,0-0.6,0.1-0.8,0.3c-0.1,0.1-0.1,0.1-0.1,0.2h-1.3c0-0.1-0.1-0.1-0.1-0.2c-0.2-0.2-0.5-0.3-0.8-0.3h-7.9
	c-0.3,0-0.5,0.1-0.7,0.3c-0.2,0.2-0.3,0.5-0.3,0.7c0,0.9,0.2,4.1,1.6,5.2c0.9,0.7,2.2,1.2,3.6,1.2c1.3,0,2.3-0.4,3-1.1
	c0.7-0.8,1.2-2.4,1.5-3.7h1.6c0.3,1.2,0.8,2.9,1.5,3.7c0.7,0.7,1.7,1.1,3,1.1c1.3,0,2.7-0.4,3.6-1.2c1.4-1.1,1.5-4.3,1.6-5.2
	c0-0.3-0.1-0.5-0.3-0.7c-0.2-0.2-0.4-0.3-0.7-0.3H39.8z M34.5,26.7c-0.3,0.3-0.8,0.5-1.5,0.5c-0.9,0-1.8-0.3-2.3-0.7
	c-0.3-0.3-0.6-1.5-0.8-2.7h5.6C35.3,25,34.9,26.3,34.5,26.7 M45.9,26.5c-0.5,0.4-1.5,0.7-2.3,0.7c-0.7,0-1.2-0.2-1.5-0.5
	c-0.4-0.4-0.8-1.7-1-2.9h5.6C46.5,25.1,46.2,26.2,45.9,26.5 M70.8,42c-10,3.3-20.3,5-30.8,5.2v24.1c0,0.6-0.4,1-1,1
	c-0.6,0-1-0.4-1-1V50.8c-7.6,0-15.2-0.9-22.6-2.5c-0.1,0-0.2,0-0.2-0.1c-3.1-0.7-6.3-1.6-9.4-2.6l0.6,7.7c0,0.6-0.4,1-0.9,1.1
	c0,0,0,0-0.1,0c-0.5,0-1-0.4-1-0.9l-0.7-9.2c0-0.3,0.1-0.7,0.4-0.9c0.3-0.2,0.6-0.3,0.9-0.2c3.3,1.1,6.6,2.1,10,2.8
	c2.1-3.4,5.6-6,10.3-7.7l-0.1-1c0-0.6,0.4-1,0.9-1.1c0.5,0,1,0.4,1.1,0.9l0.3,4.3l3-1.1c0.5-0.2,1.1,0.1,1.3,0.6
	c0.2,0.5-0.1,1.1-0.6,1.3l-4.2,1.5c-0.1,0-0.2,0.1-0.3,0.1c-0.2,0-0.4-0.1-0.6-0.2c-0.3-0.2-0.4-0.5-0.4-0.8l-0.2-2.5
	c-3.8,1.4-6.5,3.4-8.4,6c6.9,1.4,13.8,2.2,20.9,2.2v-2.6c0-0.5,0.4-1,1-1c5.9,0,11.8-0.6,17.5-1.6c-1.5-1.2-3.3-2.2-5.3-3l-0.2,2.5
	c0,0.3-0.2,0.6-0.4,0.8c-0.2,0.1-0.4,0.2-0.6,0.2c-0.1,0-0.2,0-0.3-0.1l-4.2-1.5c-0.5-0.2-0.8-0.8-0.6-1.3s0.8-0.8,1.3-0.6l3,1.1
	l0.3-4.3c0-0.6,0.5-1,1.1-0.9c0.6,0,1,0.5,0.9,1.1l-0.1,1c3.1,1.1,5.7,2.7,7.7,4.6c4.2-0.9,8.4-2,12.5-3.4c0.3-0.1,0.7-0.1,0.9,0.1
	c0.3,0.2,0.4,0.5,0.4,0.8L72.2,54c0,0.6-0.5,1-1,1c-0.6,0-1-0.5-1-1L70.8,42z M75.6,57.5c-0.9-0.9-2.3-1.3-4.3-1.3s-3.4,0.4-4.3,1.3
	c-1.2,1.2-1.2,2.9-1.2,4.4l0,6.9c0,3,2.4,5.5,5.5,5.5c3,0,5.4-2.4,5.4-5.5l0-6.9C76.8,60.4,76.8,58.7,75.6,57.5 M74.8,61.9l0,7
	c0,1.9-1.5,3.5-3.5,3.5c-1.4,0-2.6-0.8-3.1-2h2c0.6,0,1-0.4,1-1s-0.4-1-1-1h-2.3v-1.7h2.3c0.6,0,1-0.4,1-1c0-0.6-0.4-1-1-1h-2.3
	v-1.8h2.3c0.6,0,1-0.4,1-1c0-0.6-0.4-1-1-1h-2.3c0-0.7,0.2-1.4,0.6-1.8c0.5-0.5,1.5-0.7,2.9-0.7s2.4,0.2,2.9,0.7
	C74.8,59.5,74.8,60.7,74.8,61.9 M5.8,55.5c-2.1,0-3.6,0.5-4.6,1.4C0,58.2,0,60,0,61.6l0,7.5c0,3.2,2.6,5.8,5.8,5.8s5.8-2.6,5.8-5.8
	l0-7.5c0-1.6,0-3.4-1.2-4.7C9.4,56,7.9,55.5,5.8,55.5 M5.8,72.9c-2.1,0-3.8-1.7-3.8-3.8l0-7.5c0-1.3,0-2.6,0.7-3.3
	c0.5-0.5,1.6-0.8,3.1-0.8s2.6,0.3,3.1,0.8c0.5,0.5,0.6,1.2,0.7,2.1H7c-0.6,0-1,0.4-1,1c0,0.6,0.4,1,1,1h2.6v2.1H7c-0.6,0-1,0.4-1,1
	c0,0.6,0.4,1,1,1h2.6v2H7c-0.6,0-1,0.4-1,1s0.4,1,1,1h2.3C8.8,71.9,7.4,72.9,5.8,72.9"/>
</svg>
