<?xml version="1.0" encoding="utf-8"?>
<!-- Generator: Adobe Illustrator 18.1.1, SVG Export Plug-In . SVG Version: 6.00 Build 0)  -->
<svg version="1.1" id="Calque_1" xmlns="http://www.w3.org/2000/svg" xmlns:xlink="http://www.w3.org/1999/xlink" x="0px" y="0px"
	 viewBox="0 0 170.9 171.6" enable-background="new 0 0 170.9 171.6" xml:space="preserve">
<path fill="#000002" d="M151.8,171.6H19.1c-1.4,0-2.5-1.1-2.5-2.5V84.6H2.5c-1,0-1.9-0.6-2.3-1.6C-0.2,82,0,81,0.8,80.3l83-79.6
	c1-0.9,2.5-0.9,3.5,0l83,79.6c0.7,0.7,1,1.8,0.6,2.7c-0.4,0.9-1.3,1.6-2.3,1.6h-14.1v84.5C154.3,170.5,153.2,171.6,151.8,171.6
	 M115.4,166.6h34V129h-34V166.6 M51.1,166.6h59.2V129H51.1V166.6 M37.1,166.6h9v-2.9h-9V166.6z M21.6,166.6h10.5V129H21.6V166.6z
	 M37.1,158.7h9v-4.2h-9V158.7z M37.1,149.5h9v-4.2h-9V149.5z M37.1,140.3h9v-4.2h-9V140.3z M37.1,131.2h9V129h-9V131.2z M112.9,124
	h36.5V84.6h-44.2V124H112.9 M91.2,124h9v-3h-9V124z M66.4,124h19.8V84.6H66.4V124z M48.6,124h12.7V84.6H21.6V124H48.6 M91.2,116h9
	v-4.7h-9V116z M91.2,106.4h9v-4.7h-9V106.4z M91.2,96.7h9V92h-9V96.7z M91.2,87h9v-2.5h-9V87z M151.8,79.6h10.4l-26.9-25.8v25.8
	H151.8z M102.7,79.6h27.7V49.1c0,0,0-0.1,0-0.1l-24.3-23.3H64.9L39.4,50.2v29.4H102.7z M19.1,79.6h15.3V55L8.7,79.6H19.1z
	 M70.1,20.7h30.8L85.5,6L70.1,20.7z"/>
</svg>
