<?xml version="1.0" encoding="utf-8"?>
<!-- Generator: Adobe Illustrator 18.1.1, SVG Export Plug-In . SVG Version: 6.00 Build 0)  -->
<svg version="1.1" id="Calque_1" xmlns="http://www.w3.org/2000/svg" xmlns:xlink="http://www.w3.org/1999/xlink" x="0px" y="0px"
	 viewBox="0 0 48 39.2" enable-background="new 0 0 48 39.2" xml:space="preserve">
<path d="M44.2,8h-6.8l-3.2-8H13.9l-3.2,8H9.6V4H4.8v4h-1C1.7,8,0,9.7,0,11.8v23.5c0,2.1,1.7,3.9,3.9,3.9h40.3c2.1,0,3.9-1.7,3.9-3.9
	V11.8C48,9.7,46.3,8,44.2,8 M6.4,5.6H8V8H6.4V5.6z M46.4,35.3c0,1.3-1,2.3-2.3,2.3H3.9c-1.2,0-2.3-1-2.3-2.3V11.8
	c0-1.2,1-2.2,2.2-2.2h7.9l3.2-8h18.1l3.2,8h7.9c1.2,0,2.2,1,2.2,2.2V35.3z"/>
<path d="M24,7.2c-7.9,0-14.4,6.5-14.4,14.4C9.6,29.5,16.1,36,24,36s14.4-6.5,14.4-14.4C38.4,13.7,31.9,7.2,24,7.2 M24,34.4
	c-7.1,0-12.8-5.7-12.8-12.8c0-7.1,5.7-12.8,12.8-12.8s12.8,5.7,12.8,12.8C36.8,28.7,31.1,34.4,24,34.4"/>
<path d="M24,12c-5.3,0-9.6,4.3-9.6,9.6c0,5.3,4.3,9.6,9.6,9.6s9.6-4.3,9.6-9.6C33.6,16.3,29.3,12,24,12 M24,29.6c-4.4,0-8-3.6-8-8
	c0-4.4,3.6-8,8-8s8,3.6,8,8C32,26,28.4,29.6,24,29.6"/>
<path d="M41.6,11.2c-1.8,0-3.2,1.4-3.2,3.2c0,1.8,1.4,3.2,3.2,3.2c1.8,0,3.2-1.4,3.2-3.2C44.8,12.6,43.4,11.2,41.6,11.2 M41.6,16
	c-0.9,0-1.6-0.7-1.6-1.6c0-0.9,0.7-1.6,1.6-1.6c0.9,0,1.6,0.7,1.6,1.6C43.2,15.3,42.5,16,41.6,16"/>
</svg>
