<?xml version="1.0" encoding="utf-8"?>
<!-- Generator: Adobe Illustrator 18.1.1, SVG Export Plug-In . SVG Version: 6.00 Build 0)  -->
<svg version="1.1" id="Calque_1" xmlns="http://www.w3.org/2000/svg" xmlns:xlink="http://www.w3.org/1999/xlink" x="0px" y="0px"
	 viewBox="0 0 431 463" enable-background="new 0 0 431 463" xml:space="preserve">
<path d="M382.9,333.6l-73.2-18.3c-0.3-0.4-0.6-0.8-0.9-1.2L287,292.4v-20.9c1.8-1.8,3.6-3.8,5.3-5.8c20.3-23.5,32.6-55.1,34.4-89.1
	c0.1-1.4,0.1-2.7,0.2-4.1c0.2-4.5,0.4-8.7,0.9-13l7.2-72.2c2.2-22.3-5.1-44.6-20.2-61.3C299.8,9.5,278.4,0,255.9,0h-80.9
	c-22.4,0-43.9,9.5-58.9,26.2S93.7,65.1,96,87.4l7.2,72.1c0.4,4.3,0.6,8.6,0.9,13.1c0.1,1.3,0.1,2.7,0.2,4
	c1.9,34,14.1,65.6,34.4,89.1c1.7,2,3.5,3.9,5.3,5.8v20.9l-21.8,21.8c-0.3,0.3-0.6,0.7-0.9,1.1l-73.2,18.3
	C17.1,341.4,0,360.4,0,387.2v52.3c0,13,10.5,23.5,23.5,23.5h384c13,0,23.5-10.5,23.5-23.5v-52.3C431,360.4,413.9,341.4,382.9,333.6z
	 M207.5,415h16c0.6,0,1.1,0,1.7-0.1l5.6,33.1h-30.6l5.6-33.1C206.4,415,206.9,415,207.5,415z M232,391.5c0,4.7-3.8,8.5-8.5,8.5h-16
	c-4.7,0-8.5-3.8-8.5-8.5v-12l16.5-11l16.5,11V391.5z M159,284.4c17,12.1,36.4,18.6,56.5,18.6s39.5-6.5,56.5-18.6v8l-56.5,56.5
	L159,292.4V284.4z M243.7,369.3C243.7,369.3,243.7,369.3,243.7,369.3l-16.4-11l52.2-52.2l14.7,14.7c-5,9-16.6,29.9-33.1,59.5
	c0,0.1-0.1,0.2-0.3,0.2c-0.2,0.1-0.4,0-0.4-0.1L243.7,369.3z M127.2,36.2C139.4,22.7,156.9,15,175.1,15h80.9
	c18.2,0,35.6,7.7,47.8,21.2c12.2,13.5,18.2,31.6,16.4,49.7l-4.6,45.7c-10.1-24.2-21.3-39.6-22-40.5c-2.4-3.3-6.9-4-10.3-1.8
	c-19.7,13.5-107.5,15.2-139.7,14.7c-2.2,0-4.2,0.9-5.7,2.5c-9.2,10.3-16.4,21.8-21.8,31.9l-5.2-52.5C109.1,67.8,115,49.7,127.2,36.2
	z M119.2,175.9c-0.1-1.3-0.1-2.7-0.2-4c0-0.9-0.1-1.8-0.1-2.8c1.6-4.6,11-29.9,28-50.1c20.8,0.2,105.5,0,138.1-13.8
	c6.4,10.1,20,33.9,27.1,63.7c-0.1,1-0.1,1.9-0.2,2.9c-0.1,1.3-0.1,2.7-0.2,4C308.3,238.7,266,288,215.5,288S122.7,238.7,119.2,175.9
	 M151.5,306.1l52.2,52.2l-16.4,10.9c0,0,0,0,0,0l-16.7,11.2c0,0-0.2,0.1-0.4,0.1c-0.2,0-0.2-0.2-0.3-0.2
	c-16.5-29.6-28.1-50.6-33.1-59.5L151.5,306.1z M15,439.5v-52.3c0-19.8,12.4-33,36.7-39.1l73-18.2c4.3,7.8,13.3,23.9,32,57.7
	c2.1,3.8,5.7,6.5,9.9,7.5c1.2,0.3,2.4,0.4,3.6,0.4c3,0,6.1-0.9,8.6-2.6l5.1-3.4v2c0,6.9,3,13,7.7,17.3L185,448H87v-40.5
	c0-4.1-3.4-7.5-7.5-7.5s-7.5,3.4-7.5,7.5V448H23.5C18.8,448,15,444.2,15,439.5 M416,439.5c0,4.7-3.8,8.5-8.5,8.5H359v-40.5
	c0-4.1-3.4-7.5-7.5-7.5s-7.5,3.4-7.5,7.5V448h-98l-6.7-39.2c4.7-4.3,7.7-10.5,7.7-17.3v-2l5.1,3.4c2.6,1.7,5.6,2.6,8.6,2.6
	c1.2,0,2.4-0.1,3.6-0.4c4.2-1,7.8-3.7,9.9-7.5c18.7-33.7,27.7-49.8,32-57.6l73,18.2c24.4,6.1,36.7,19.2,36.7,39.1V439.5z"/>
</svg>
