<svg xmlns="http://www.w3.org/2000/svg" viewBox="0 0 475 321.8">
  <path d="M388.3 134c-1.9-.5-4-.3-5.7.7-1.8 1-3 2.6-3.6 4.5-.6 1.9-.3 4 .7 5.7 1 1.8 2.6 3 4.5 3.6 47.5 13.6 75.8 32.9 75.8 51.8 0 14-15.6 28.5-44.1 40.7-30 12.9-72.5 22.4-119.7 26.6h-.2l-41-.6-.1-2.5v2.5c-4.1 0-7.4 3.3-7.5 7.4 0 2 .7 3.9 2.1 5.3 1.4 1.4 3.3 2.2 5.3 2.3l41.5.6.1 2.5v-2.5h.7c48.9-4.4 93.2-14.2 124.8-27.8 43.9-18.9 53.1-40.1 53.1-54.5 0-26.8-30.8-50.3-86.7-66.3M138 184.1H94.4c-4.1 0-7.5 3.4-7.5 7.5s3.4 7.5 7.5 7.5h51.1c4.1 0 7.5-3.4 7.5-7.5V68.9c0-4.1-3.4-7.5-7.5-7.5H94.4c-4.1 0-7.5 3.4-7.5 7.5s3.4 7.5 7.5 7.5H138v46.3H94.4c-4.1 0-7.5 3.4-7.5 7.5s3.4 7.5 7.5 7.5H138v46.4zm48.4 15h61.3c4.1 0 7.5-3.4 7.5-7.5v-61.3c0-4.1-3.4-7.5-7.5-7.5h-53.8V76.4h43.6c4.1 0 7.5-3.4 7.5-7.5s-3.4-7.5-7.5-7.5h-51.1c-4.1 0-7.5 3.4-7.5 7.5v122.7c0 4.1 3.3 7.5 7.5 7.5m7.5-61.4h46.3V184h-46.3v-46.3z"/>
  <path d="M288.6 199.1H350c4.1 0 7.5-3.4 7.5-7.5V68.9c0-4.1-3.4-7.5-7.5-7.5h-61.3c-4.1 0-7.5 3.4-7.5 7.5v122.7c-.1 4.1 3.3 7.5 7.4 7.5m7.5-122.7h46.3v107.7h-46.3V76.4zM81.3 137.9c-1.1-.5-2.2-.8-3.4-.8-.8 0-1.6.1-2.3.4-22.9 7.4-40.9 16.2-53.8 26.1C7.3 174.8 0 187.1 0 200.3c0 22 20.6 41.8 59.7 57.2 32.1 12.6 75.9 21.7 123.5 25.6l5 .4-23.3 25.9c-1.3 1.5-2 3.4-1.9 5.4.1 2 1 3.8 2.5 5.2 1.4 1.2 3.2 1.9 5 1.9 2.1 0 4.2-.9 5.6-2.5l36.4-40.3c1.2-1.4 1.9-3.2 1.9-5v-.8c0-1.8-.6-3.5-1.8-4.8l-34.1-40.3c-2.7-3.2-7.4-3.6-10.6-.9-3.2 2.7-3.6 7.4-.9 10.6l26.2 31-6-.5c-47.3-3.6-90.7-12.4-122.1-24.8C32.8 230.7 15 215.4 15 200.3c0-17.4 23.8-35.1 65.2-48.6 3.9-1.3 6.1-5.5 4.8-9.4-.6-1.9-1.9-3.5-3.7-4.4m297.6-82h40.9c4.1 0 7.5-3.4 7.5-7.5V7.5c0-4.1-3.4-7.5-7.5-7.5h-40.9c-4.1 0-7.5 3.4-7.5 7.5v40.9c0 4.1 3.4 7.5 7.5 7.5m7.5-40.9h25.9v25.9h-25.9V15z"/>
</svg>
